<?xml version="1.0" encoding="us-ascii" standalone="no"?><svg xmlns="http://www.w3.org/2000/svg" xmlns:xlink="http://www.w3.org/1999/xlink" contentStyleType="text/css" height="399px" preserveAspectRatio="none" style="width:4090px;height:399px;background:#FFFFFF;" version="1.1" viewBox="0 0 4090 399" width="4090px" zoomAndPan="magnify"><defs/><g><!--cluster Diseases--><g id="cluster_Diseases"><path d="M8.5,6 L80.5,6 A3.75,3.75 0 0 1 83,8.5 L90,28.2969 L757.5,28.2969 A2.5,2.5 0 0 1 760,30.7969 L760,389.5 A2.5,2.5 0 0 1 757.5,392 L8.5,392 A2.5,2.5 0 0 1 6,389.5 L6,8.5 A2.5,2.5 0 0 1 8.5,6 " fill="none" style="stroke:#000000;stroke-width:1.5;"/><line style="stroke:#000000;stroke-width:1.5;" x1="6" x2="90" y1="28.2969" y2="28.2969"/><text fill="#000000" font-family="sans-serif" font-size="14" font-weight="bold" lengthAdjust="spacing" textLength="71" x="10" y="20.9951">Diseases</text></g><!--cluster Items--><g id="cluster_Items"><path d="M786.5,6 L833.5,6 A3.75,3.75 0 0 1 836,8.5 L843,28.2969 L1241.5,28.2969 A2.5,2.5 0 0 1 1244,30.7969 L1244,389.5 A2.5,2.5 0 0 1 1241.5,392 L786.5,392 A2.5,2.5 0 0 1 784,389.5 L784,8.5 A2.5,2.5 0 0 1 786.5,6 " fill="none" style="stroke:#000000;stroke-width:1.5;"/><line style="stroke:#000000;stroke-width:1.5;" x1="784" x2="843" y1="28.2969" y2="28.2969"/><text fill="#000000" font-family="sans-serif" font-size="14" font-weight="bold" lengthAdjust="spacing" textLength="46" x="788" y="20.9951">Items</text></g><!--cluster Places--><g id="cluster_Places"><path d="M1270.5,22.5 L1323.5,22.5 A3.75,3.75 0 0 1 1326,25 L1333,44.7969 L1831.5,44.7969 A2.5,2.5 0 0 1 1834,47.2969 L1834,389.5 A2.5,2.5 0 0 1 1831.5,392 L1270.5,392 A2.5,2.5 0 0 1 1268,389.5 L1268,25 A2.5,2.5 0 0 1 1270.5,22.5 " fill="none" style="stroke:#000000;stroke-width:1.5;"/><line style="stroke:#000000;stroke-width:1.5;" x1="1268" x2="1333" y1="44.7969" y2="44.7969"/><text fill="#000000" font-family="sans-serif" font-size="14" font-weight="bold" lengthAdjust="spacing" textLength="52" x="1272" y="37.4951">Places</text></g><!--cluster Humans--><g id="cluster_Humans"><path d="M1860.5,6 L1926.5,6 A3.75,3.75 0 0 1 1929,8.5 L1936,28.2969 L4080.5,28.2969 A2.5,2.5 0 0 1 4083,30.7969 L4083,389.5 A2.5,2.5 0 0 1 4080.5,392 L1860.5,392 A2.5,2.5 0 0 1 1858,389.5 L1858,8.5 A2.5,2.5 0 0 1 1860.5,6 " fill="none" style="stroke:#000000;stroke-width:1.5;"/><line style="stroke:#000000;stroke-width:1.5;" x1="1858" x2="1936" y1="28.2969" y2="28.2969"/><text fill="#000000" font-family="sans-serif" font-size="14" font-weight="bold" lengthAdjust="spacing" textLength="65" x="1862" y="20.9951">Humans</text></g><!--class DiseaseType--><g id="elem_DiseaseType"><rect codeLine="2" fill="#F1F1F1" height="64.2969" id="DiseaseType" rx="2.5" ry="2.5" style="stroke:#181818;stroke-width:0.5;" width="123" x="436.5" y="287.5"/><ellipse cx="451.5" cy="303.5" fill="#EB937F" rx="11" ry="11" style="stroke:#181818;stroke-width:1.0;"/><path d="M450.2969,304.375 L451.75,304.375 L451.75,304.4844 C451.75,304.8906 451.7813,305.0469 451.8594,305.2031 C452.0156,305.4531 452.2969,305.6094 452.5938,305.6094 C452.8438,305.6094 453.1094,305.4688 453.2656,305.25 C453.3906,305.0938 453.4219,304.9375 453.4219,304.4844 L453.4219,302.5625 C453.4219,302.4063 453.4219,302.3594 453.4063,302.2031 C453.3438,301.7344 453.0313,301.4219 452.5781,301.4219 C452.3281,301.4219 452.0625,301.5625 451.8906,301.7813 C451.7813,301.9531 451.75,302.1094 451.75,302.5625 L451.75,302.6875 L450.2969,302.6875 L450.2969,300.2813 L454.2813,300.2813 L454.2813,301.1406 C454.2813,301.5469 454.3125,301.7188 454.3906,301.875 C454.5625,302.125 454.8438,302.2813 455.125,302.2813 C455.3906,302.2813 455.6563,302.1406 455.8281,301.9219 C455.9375,301.75 455.9688,301.6094 455.9688,301.1406 L455.9688,298.5938 L448.3438,298.5938 C447.9063,298.5938 447.7813,298.6094 447.625,298.7031 C447.375,298.8594 447.2188,299.1563 447.2188,299.4375 C447.2188,299.7188 447.3594,299.9688 447.5781,300.1406 C447.7344,300.25 447.9219,300.2813 448.3438,300.2813 L448.5938,300.2813 L448.5938,306.7969 L448.3438,306.7969 C447.9375,306.7969 447.7813,306.8125 447.625,306.9219 C447.375,307.0938 447.2188,307.3594 447.2188,307.6563 C447.2188,307.9219 447.3594,308.1719 447.5781,308.3281 C447.7188,308.4531 447.9531,308.5 448.3438,308.5 L456.3438,308.5 L456.3438,305.9219 C456.3438,305.4844 456.3125,305.3438 456.2344,305.1875 C456.0625,304.9375 455.7813,304.7813 455.5,304.7813 C455.2344,304.7813 454.9688,304.8906 454.7969,305.1406 C454.6875,305.2969 454.6563,305.4375 454.6563,305.9219 L454.6563,306.7969 L450.2969,306.7969 L450.2969,304.375 Z " fill="#000000"/><text fill="#000000" font-family="sans-serif" font-size="14" lengthAdjust="spacing" textLength="91" x="465.5" y="308.3467">DiseaseType</text><line style="stroke:#181818;stroke-width:0.5;" x1="437.5" x2="558.5" y1="319.5" y2="319.5"/><text fill="#000000" font-family="sans-serif" font-size="14" lengthAdjust="spacing" textLength="48" x="442.5" y="336.4951">LEGILL</text><line style="stroke:#181818;stroke-width:0.5;" x1="437.5" x2="558.5" y1="343.7969" y2="343.7969"/></g><!--class Disease--><g id="elem_Disease"><rect codeLine="7" fill="#F1F1F1" height="162.0781" id="Disease" rx="2.5" ry="2.5" style="stroke:#181818;stroke-width:0.5;" width="399" x="199.5" y="41"/><ellipse cx="366.75" cy="57" fill="#A9DCDF" rx="11" ry="11" style="stroke:#181818;stroke-width:1.0;"/><path d="M368.8281,58.8125 L369.2188,59.7969 L368.8281,59.7969 C368.375,59.7969 368.2656,59.8125 368.1094,59.9219 C367.8594,60.0781 367.7031,60.3594 367.7031,60.6563 C367.7031,60.9219 367.8438,61.1719 368.0625,61.3281 C368.2031,61.4531 368.4063,61.5 368.8281,61.5 L371.1875,61.5 C371.5469,61.5 371.7656,61.4688 371.9063,61.375 C372.1563,61.2344 372.3125,60.9375 372.3125,60.6563 C372.3125,60.375 372.1719,60.125 371.9531,59.9688 C371.7813,59.8281 371.625,59.7969 371.1563,59.7969 L367.7656,51.5938 L364.0938,51.5938 C363.6406,51.5938 363.5156,51.6094 363.3594,51.7031 C363.1094,51.875 362.9531,52.1563 362.9531,52.4375 C362.9531,52.7188 363.0938,52.9688 363.3125,53.1406 C363.4844,53.25 363.6563,53.2813 364.0938,53.2813 L365.1719,53.2813 L362.5313,59.7969 C362.1094,59.7969 361.9531,59.8125 361.7969,59.9219 C361.5469,60.0781 361.3906,60.3594 361.3906,60.6563 C361.3906,61.2188 361.7656,61.5 362.5156,61.5 L364.7813,61.5 C365.1406,61.5 365.3594,61.4688 365.4844,61.375 C365.75,61.2344 365.8906,60.9375 365.8906,60.6563 C365.8906,60.375 365.7656,60.125 365.5469,59.9531 C365.375,59.8281 365.2344,59.7969 364.7813,59.7969 L364.3906,59.7969 L364.7813,58.8125 L368.8281,58.8125 Z M368.125,57.1094 L365.4531,57.1094 L366.7969,53.8438 L368.125,57.1094 Z " fill="#000000"/><text fill="#000000" font-family="sans-serif" font-size="14" font-style="italic" lengthAdjust="spacing" textLength="56" x="387.25" y="61.8467">Disease</text><line style="stroke:#181818;stroke-width:0.5;" x1="200.5" x2="597.5" y1="73" y2="73"/><polygon fill="none" points="210.5,81.6484,214.5,85.6484,210.5,89.6484,206.5,85.6484" style="stroke:#B38D22;stroke-width:1.0;"/><text fill="#000000" font-family="sans-serif" font-size="14" lengthAdjust="spacing" textLength="88" x="219.5" y="89.9951">String name</text><polygon fill="none" points="210.5,97.9453,214.5,101.9453,210.5,105.9453,206.5,101.9453" style="stroke:#B38D22;stroke-width:1.0;"/><text fill="#000000" font-family="sans-serif" font-size="14" lengthAdjust="spacing" textLength="129" x="219.5" y="106.292">DiseaseType type</text><polygon fill="none" points="210.5,114.2422,214.5,118.2422,210.5,122.2422,206.5,118.2422" style="stroke:#B38D22;stroke-width:1.0;"/><text fill="#000000" font-family="sans-serif" font-size="14" lengthAdjust="spacing" textLength="75" x="219.5" y="122.5889">int degree</text><line style="stroke:#181818;stroke-width:0.5;" x1="200.5" x2="597.5" y1="129.8906" y2="129.8906"/><ellipse cx="210.5" cy="143.5391" fill="#84BE84" rx="3" ry="3" style="stroke:#038048;stroke-width:1.0;"/><text fill="#000000" font-family="sans-serif" font-size="14" lengthAdjust="spacing" textLength="373" x="219.5" y="146.8857">Disease(DiseaseType type, int degree, String name)</text><ellipse cx="210.5" cy="159.8359" fill="#84BE84" rx="3" ry="3" style="stroke:#038048;stroke-width:1.0;"/><text fill="#000000" font-family="sans-serif" font-size="14" lengthAdjust="spacing" textLength="221" x="219.5" y="163.1826">DiseaseType getDiseaseType()</text><ellipse cx="210.5" cy="176.1328" fill="#84BE84" rx="3" ry="3" style="stroke:#038048;stroke-width:1.0;"/><text fill="#000000" font-family="sans-serif" font-size="14" lengthAdjust="spacing" textLength="124" x="219.5" y="179.4795">String getName()</text><ellipse cx="210.5" cy="192.4297" fill="#84BE84" rx="3" ry="3" style="stroke:#038048;stroke-width:1.0;"/><text fill="#000000" font-family="sans-serif" font-size="14" lengthAdjust="spacing" textLength="112" x="219.5" y="195.7764">int getDegree()</text></g><!--class LegIll--><g id="elem_LegIll"><rect codeLine="17" fill="#F1F1F1" height="113.1875" id="LegIll" rx="2.5" ry="2.5" style="stroke:#181818;stroke-width:0.5;" width="149" x="594.5" y="263"/><ellipse cx="645.75" cy="279" fill="#ADD1B2" rx="11" ry="11" style="stroke:#181818;stroke-width:1.0;"/><path d="M648.0938,274.6719 C647.1563,274.2344 646.5625,274.0938 645.6875,274.0938 C643.0625,274.0938 641.0625,276.1719 641.0625,278.8906 L641.0625,280.0156 C641.0625,282.5938 643.1719,284.4844 646.0625,284.4844 C647.2813,284.4844 648.4375,284.1875 649.1875,283.6406 C649.7656,283.2344 650.0938,282.7813 650.0938,282.3906 C650.0938,281.9375 649.7031,281.5469 649.2344,281.5469 C649.0156,281.5469 648.8125,281.625 648.625,281.8125 C648.1719,282.2969 648.1719,282.2969 647.9844,282.3906 C647.5625,282.6563 646.875,282.7813 646.1094,282.7813 C644.0625,282.7813 642.7656,281.6875 642.7656,279.9844 L642.7656,278.8906 C642.7656,277.1094 644.0156,275.7969 645.75,275.7969 C646.3281,275.7969 646.9375,275.9531 647.4063,276.2031 C647.8906,276.4844 648.0625,276.7031 648.1563,277.1094 C648.2188,277.5156 648.25,277.6406 648.3906,277.7656 C648.5313,277.9063 648.7656,278.0156 648.9844,278.0156 C649.25,278.0156 649.5156,277.875 649.6875,277.6563 C649.7969,277.5 649.8281,277.3125 649.8281,276.8906 L649.8281,275.4688 C649.8281,275.0313 649.8125,274.9063 649.7188,274.75 C649.5625,274.4844 649.2813,274.3438 648.9844,274.3438 C648.6875,274.3438 648.4844,274.4375 648.2656,274.75 L648.0938,274.6719 Z " fill="#000000"/><text fill="#000000" font-family="sans-serif" font-size="14" lengthAdjust="spacing" textLength="38" x="666.25" y="283.8467">LegIll</text><line style="stroke:#181818;stroke-width:0.5;" x1="595.5" x2="742.5" y1="295" y2="295"/><polygon fill="none" points="605.5,303.6484,609.5,307.6484,605.5,311.6484,601.5,307.6484" style="stroke:#B38D22;stroke-width:1.0;"/><text fill="#000000" font-family="sans-serif" font-size="14" lengthAdjust="spacing" textLength="101" x="614.5" y="311.9951">type = LEGILL</text><polygon fill="none" points="605.5,319.9453,609.5,323.9453,605.5,327.9453,601.5,323.9453" style="stroke:#B38D22;stroke-width:1.0;"/><text fill="#000000" font-family="sans-serif" font-size="14" lengthAdjust="spacing" textLength="75" x="614.5" y="328.292">int degree</text><polygon fill="none" points="605.5,336.2422,609.5,340.2422,605.5,344.2422,601.5,340.2422" style="stroke:#B38D22;stroke-width:1.0;"/><text fill="#000000" font-family="sans-serif" font-size="14" lengthAdjust="spacing" textLength="94" x="614.5" y="344.5889">name = &#1053;&#1086;&#1075;&#1072;</text><line style="stroke:#181818;stroke-width:0.5;" x1="595.5" x2="742.5" y1="351.8906" y2="351.8906"/><ellipse cx="605.5" cy="365.5391" fill="#84BE84" rx="3" ry="3" style="stroke:#038048;stroke-width:1.0;"/><text fill="#000000" font-family="sans-serif" font-size="14" lengthAdjust="spacing" textLength="123" x="614.5" y="368.8857">LegIll(int degree)</text></g><!--class Healthy--><g id="elem_Healthy"><rect codeLine="24" fill="#F1F1F1" height="113.1875" id="Healthy" rx="2.5" ry="2.5" style="stroke:#181818;stroke-width:0.5;" width="144" x="22" y="263"/><ellipse cx="62.65" cy="279" fill="#ADD1B2" rx="11" ry="11" style="stroke:#181818;stroke-width:1.0;"/><path d="M64.9938,274.6719 C64.0563,274.2344 63.4625,274.0938 62.5875,274.0938 C59.9625,274.0938 57.9625,276.1719 57.9625,278.8906 L57.9625,280.0156 C57.9625,282.5938 60.0719,284.4844 62.9625,284.4844 C64.1813,284.4844 65.3375,284.1875 66.0875,283.6406 C66.6656,283.2344 66.9938,282.7813 66.9938,282.3906 C66.9938,281.9375 66.6031,281.5469 66.1344,281.5469 C65.9156,281.5469 65.7125,281.625 65.525,281.8125 C65.0719,282.2969 65.0719,282.2969 64.8844,282.3906 C64.4625,282.6563 63.775,282.7813 63.0094,282.7813 C60.9625,282.7813 59.6656,281.6875 59.6656,279.9844 L59.6656,278.8906 C59.6656,277.1094 60.9156,275.7969 62.65,275.7969 C63.2281,275.7969 63.8375,275.9531 64.3063,276.2031 C64.7906,276.4844 64.9625,276.7031 65.0563,277.1094 C65.1188,277.5156 65.15,277.6406 65.2906,277.7656 C65.4313,277.9063 65.6656,278.0156 65.8844,278.0156 C66.15,278.0156 66.4156,277.875 66.5875,277.6563 C66.6969,277.5 66.7281,277.3125 66.7281,276.8906 L66.7281,275.4688 C66.7281,275.0313 66.7125,274.9063 66.6188,274.75 C66.4625,274.4844 66.1813,274.3438 65.8844,274.3438 C65.5875,274.3438 65.3844,274.4375 65.1656,274.75 L64.9938,274.6719 Z " fill="#000000"/><text fill="#000000" font-family="sans-serif" font-size="14" lengthAdjust="spacing" textLength="55" x="82.35" y="283.8467">Healthy</text><line style="stroke:#181818;stroke-width:0.5;" x1="23" x2="165" y1="295" y2="295"/><polygon fill="none" points="33,303.6484,37,307.6484,33,311.6484,29,307.6484" style="stroke:#B38D22;stroke-width:1.0;"/><text fill="#000000" font-family="sans-serif" font-size="14" lengthAdjust="spacing" textLength="118" x="42" y="311.9951">type = HEALTHY</text><polygon fill="none" points="33,319.9453,37,323.9453,33,327.9453,29,323.9453" style="stroke:#B38D22;stroke-width:1.0;"/><text fill="#000000" font-family="sans-serif" font-size="14" lengthAdjust="spacing" textLength="79" x="42" y="328.292">degree = 0</text><polygon fill="none" points="33,336.2422,37,340.2422,33,344.2422,29,340.2422" style="stroke:#B38D22;stroke-width:1.0;"/><text fill="#000000" font-family="sans-serif" font-size="14" lengthAdjust="spacing" textLength="115" x="42" y="344.5889">name = &#1047;&#1076;&#1086;&#1088;&#1086;&#1074;</text><line style="stroke:#181818;stroke-width:0.5;" x1="23" x2="165" y1="351.8906" y2="351.8906"/><ellipse cx="33" cy="365.5391" fill="#84BE84" rx="3" ry="3" style="stroke:#038048;stroke-width:1.0;"/><text fill="#000000" font-family="sans-serif" font-size="14" lengthAdjust="spacing" textLength="65" x="42" y="368.8857">Healthy()</text></g><!--class Undefined--><g id="elem_Undefined"><rect codeLine="31" fill="#F1F1F1" height="113.1875" id="Undefined" rx="2.5" ry="2.5" style="stroke:#181818;stroke-width:0.5;" width="200" x="201" y="263"/><ellipse cx="260.25" cy="279" fill="#ADD1B2" rx="11" ry="11" style="stroke:#181818;stroke-width:1.0;"/><path d="M262.5938,274.6719 C261.6563,274.2344 261.0625,274.0938 260.1875,274.0938 C257.5625,274.0938 255.5625,276.1719 255.5625,278.8906 L255.5625,280.0156 C255.5625,282.5938 257.6719,284.4844 260.5625,284.4844 C261.7813,284.4844 262.9375,284.1875 263.6875,283.6406 C264.2656,283.2344 264.5938,282.7813 264.5938,282.3906 C264.5938,281.9375 264.2031,281.5469 263.7344,281.5469 C263.5156,281.5469 263.3125,281.625 263.125,281.8125 C262.6719,282.2969 262.6719,282.2969 262.4844,282.3906 C262.0625,282.6563 261.375,282.7813 260.6094,282.7813 C258.5625,282.7813 257.2656,281.6875 257.2656,279.9844 L257.2656,278.8906 C257.2656,277.1094 258.5156,275.7969 260.25,275.7969 C260.8281,275.7969 261.4375,275.9531 261.9063,276.2031 C262.3906,276.4844 262.5625,276.7031 262.6563,277.1094 C262.7188,277.5156 262.75,277.6406 262.8906,277.7656 C263.0313,277.9063 263.2656,278.0156 263.4844,278.0156 C263.75,278.0156 264.0156,277.875 264.1875,277.6563 C264.2969,277.5 264.3281,277.3125 264.3281,276.8906 L264.3281,275.4688 C264.3281,275.0313 264.3125,274.9063 264.2188,274.75 C264.0625,274.4844 263.7813,274.3438 263.4844,274.3438 C263.1875,274.3438 262.9844,274.4375 262.7656,274.75 L262.5938,274.6719 Z " fill="#000000"/><text fill="#000000" font-family="sans-serif" font-size="14" lengthAdjust="spacing" textLength="73" x="280.75" y="283.8467">Undefined</text><line style="stroke:#181818;stroke-width:0.5;" x1="202" x2="400" y1="295" y2="295"/><polygon fill="none" points="212,303.6484,216,307.6484,212,311.6484,208,307.6484" style="stroke:#B38D22;stroke-width:1.0;"/><text fill="#000000" font-family="sans-serif" font-size="14" lengthAdjust="spacing" textLength="134" x="221" y="311.9951">type = UNDEFINED</text><polygon fill="none" points="212,319.9453,216,323.9453,212,327.9453,208,323.9453" style="stroke:#B38D22;stroke-width:1.0;"/><text fill="#000000" font-family="sans-serif" font-size="14" lengthAdjust="spacing" textLength="79" x="221" y="328.292">degree = 0</text><polygon fill="none" points="212,336.2422,216,340.2422,212,344.2422,208,340.2422" style="stroke:#B38D22;stroke-width:1.0;"/><text fill="#000000" font-family="sans-serif" font-size="14" lengthAdjust="spacing" textLength="174" x="221" y="344.5889">name = &#1053;&#1077; &#1086;&#1087;&#1088;&#1077;&#1076;&#1077;&#1083;&#1077;&#1085;&#1086;</text><line style="stroke:#181818;stroke-width:0.5;" x1="202" x2="400" y1="351.8906" y2="351.8906"/><ellipse cx="212" cy="365.5391" fill="#84BE84" rx="3" ry="3" style="stroke:#038048;stroke-width:1.0;"/><text fill="#000000" font-family="sans-serif" font-size="14" lengthAdjust="spacing" textLength="83" x="221" y="368.8857">Undefined()</text></g><!--class ReadableType--><g id="elem_ReadableType"><rect codeLine="40" fill="#F1F1F1" height="64.2969" id="ReadableType" rx="2.5" ry="2.5" style="stroke:#181818;stroke-width:0.5;" width="135" x="810.5" y="287.5"/><ellipse cx="825.5" cy="303.5" fill="#EB937F" rx="11" ry="11" style="stroke:#181818;stroke-width:1.0;"/><path d="M824.2969,304.375 L825.75,304.375 L825.75,304.4844 C825.75,304.8906 825.7813,305.0469 825.8594,305.2031 C826.0156,305.4531 826.2969,305.6094 826.5938,305.6094 C826.8438,305.6094 827.1094,305.4688 827.2656,305.25 C827.3906,305.0938 827.4219,304.9375 827.4219,304.4844 L827.4219,302.5625 C827.4219,302.4063 827.4219,302.3594 827.4063,302.2031 C827.3438,301.7344 827.0313,301.4219 826.5781,301.4219 C826.3281,301.4219 826.0625,301.5625 825.8906,301.7813 C825.7813,301.9531 825.75,302.1094 825.75,302.5625 L825.75,302.6875 L824.2969,302.6875 L824.2969,300.2813 L828.2813,300.2813 L828.2813,301.1406 C828.2813,301.5469 828.3125,301.7188 828.3906,301.875 C828.5625,302.125 828.8438,302.2813 829.125,302.2813 C829.3906,302.2813 829.6563,302.1406 829.8281,301.9219 C829.9375,301.75 829.9688,301.6094 829.9688,301.1406 L829.9688,298.5938 L822.3438,298.5938 C821.9063,298.5938 821.7813,298.6094 821.625,298.7031 C821.375,298.8594 821.2188,299.1563 821.2188,299.4375 C821.2188,299.7188 821.3594,299.9688 821.5781,300.1406 C821.7344,300.25 821.9219,300.2813 822.3438,300.2813 L822.5938,300.2813 L822.5938,306.7969 L822.3438,306.7969 C821.9375,306.7969 821.7813,306.8125 821.625,306.9219 C821.375,307.0938 821.2188,307.3594 821.2188,307.6563 C821.2188,307.9219 821.3594,308.1719 821.5781,308.3281 C821.7188,308.4531 821.9531,308.5 822.3438,308.5 L830.3438,308.5 L830.3438,305.9219 C830.3438,305.4844 830.3125,305.3438 830.2344,305.1875 C830.0625,304.9375 829.7813,304.7813 829.5,304.7813 C829.2344,304.7813 828.9688,304.8906 828.7969,305.1406 C828.6875,305.2969 828.6563,305.4375 828.6563,305.9219 L828.6563,306.7969 L824.2969,306.7969 L824.2969,304.375 Z " fill="#000000"/><text fill="#000000" font-family="sans-serif" font-size="14" lengthAdjust="spacing" textLength="103" x="839.5" y="308.3467">ReadableType</text><line style="stroke:#181818;stroke-width:0.5;" x1="811.5" x2="944.5" y1="319.5" y2="319.5"/><text fill="#000000" font-family="sans-serif" font-size="14" lengthAdjust="spacing" textLength="30" x="816.5" y="336.4951">LIST</text><line style="stroke:#181818;stroke-width:0.5;" x1="811.5" x2="944.5" y1="343.7969" y2="343.7969"/></g><!--class Readable--><g id="elem_Readable"><rect codeLine="45" fill="#F1F1F1" height="162.0781" id="Readable" rx="2.5" ry="2.5" style="stroke:#181818;stroke-width:0.5;" width="427" x="800.5" y="41"/><ellipse cx="975.75" cy="57" fill="#A9DCDF" rx="11" ry="11" style="stroke:#181818;stroke-width:1.0;"/><path d="M977.8281,58.8125 L978.2188,59.7969 L977.8281,59.7969 C977.375,59.7969 977.2656,59.8125 977.1094,59.9219 C976.8594,60.0781 976.7031,60.3594 976.7031,60.6563 C976.7031,60.9219 976.8438,61.1719 977.0625,61.3281 C977.2031,61.4531 977.4063,61.5 977.8281,61.5 L980.1875,61.5 C980.5469,61.5 980.7656,61.4688 980.9063,61.375 C981.1563,61.2344 981.3125,60.9375 981.3125,60.6563 C981.3125,60.375 981.1719,60.125 980.9531,59.9688 C980.7813,59.8281 980.625,59.7969 980.1563,59.7969 L976.7656,51.5938 L973.0938,51.5938 C972.6406,51.5938 972.5156,51.6094 972.3594,51.7031 C972.1094,51.875 971.9531,52.1563 971.9531,52.4375 C971.9531,52.7188 972.0938,52.9688 972.3125,53.1406 C972.4844,53.25 972.6563,53.2813 973.0938,53.2813 L974.1719,53.2813 L971.5313,59.7969 C971.1094,59.7969 970.9531,59.8125 970.7969,59.9219 C970.5469,60.0781 970.3906,60.3594 970.3906,60.6563 C970.3906,61.2188 970.7656,61.5 971.5156,61.5 L973.7813,61.5 C974.1406,61.5 974.3594,61.4688 974.4844,61.375 C974.75,61.2344 974.8906,60.9375 974.8906,60.6563 C974.8906,60.375 974.7656,60.125 974.5469,59.9531 C974.375,59.8281 974.2344,59.7969 973.7813,59.7969 L973.3906,59.7969 L973.7813,58.8125 L977.8281,58.8125 Z M977.125,57.1094 L974.4531,57.1094 L975.7969,53.8438 L977.125,57.1094 Z " fill="#000000"/><text fill="#000000" font-family="sans-serif" font-size="14" font-style="italic" lengthAdjust="spacing" textLength="68" x="996.25" y="61.8467">Readable</text><line style="stroke:#181818;stroke-width:0.5;" x1="801.5" x2="1226.5" y1="73" y2="73"/><polygon fill="none" points="811.5,81.6484,815.5,85.6484,811.5,89.6484,807.5,85.6484" style="stroke:#B38D22;stroke-width:1.0;"/><text fill="#000000" font-family="sans-serif" font-size="14" lengthAdjust="spacing" textLength="141" x="820.5" y="89.9951">ReadableType type</text><polygon fill="none" points="811.5,97.9453,815.5,101.9453,811.5,105.9453,807.5,101.9453" style="stroke:#B38D22;stroke-width:1.0;"/><text fill="#000000" font-family="sans-serif" font-size="14" lengthAdjust="spacing" textLength="88" x="820.5" y="106.292">String name</text><polygon fill="none" points="811.5,114.2422,815.5,118.2422,811.5,122.2422,807.5,118.2422" style="stroke:#B38D22;stroke-width:1.0;"/><text fill="#000000" font-family="sans-serif" font-size="14" lengthAdjust="spacing" textLength="79" x="820.5" y="122.5889">String text</text><line style="stroke:#181818;stroke-width:0.5;" x1="801.5" x2="1226.5" y1="129.8906" y2="129.8906"/><ellipse cx="811.5" cy="143.5391" fill="#84BE84" rx="3" ry="3" style="stroke:#038048;stroke-width:1.0;"/><text fill="#000000" font-family="sans-serif" font-size="14" lengthAdjust="spacing" textLength="401" x="820.5" y="146.8857">Readable(ReadableType type, String name, String text)</text><ellipse cx="811.5" cy="159.8359" fill="#84BE84" rx="3" ry="3" style="stroke:#038048;stroke-width:1.0;"/><text fill="#000000" font-family="sans-serif" font-size="14" lengthAdjust="spacing" textLength="124" x="820.5" y="163.1826">String getName()</text><ellipse cx="811.5" cy="176.1328" fill="#84BE84" rx="3" ry="3" style="stroke:#038048;stroke-width:1.0;"/><text fill="#000000" font-family="sans-serif" font-size="14" lengthAdjust="spacing" textLength="116" x="820.5" y="179.4795">String getText()</text><ellipse cx="811.5" cy="192.4297" fill="#84BE84" rx="3" ry="3" style="stroke:#038048;stroke-width:1.0;"/><text fill="#000000" font-family="sans-serif" font-size="14" lengthAdjust="spacing" textLength="119" x="820.5" y="195.7764">String getType()</text></g><!--class List--><g id="elem_List"><rect codeLine="55" fill="#F1F1F1" height="113.1875" id="List" rx="2.5" ry="2.5" style="stroke:#181818;stroke-width:0.5;" width="237" x="980.5" y="263"/><ellipse cx="1081.75" cy="279" fill="#ADD1B2" rx="11" ry="11" style="stroke:#181818;stroke-width:1.0;"/><path d="M1084.0938,274.6719 C1083.1563,274.2344 1082.5625,274.0938 1081.6875,274.0938 C1079.0625,274.0938 1077.0625,276.1719 1077.0625,278.8906 L1077.0625,280.0156 C1077.0625,282.5938 1079.1719,284.4844 1082.0625,284.4844 C1083.2813,284.4844 1084.4375,284.1875 1085.1875,283.6406 C1085.7656,283.2344 1086.0938,282.7813 1086.0938,282.3906 C1086.0938,281.9375 1085.7031,281.5469 1085.2344,281.5469 C1085.0156,281.5469 1084.8125,281.625 1084.625,281.8125 C1084.1719,282.2969 1084.1719,282.2969 1083.9844,282.3906 C1083.5625,282.6563 1082.875,282.7813 1082.1094,282.7813 C1080.0625,282.7813 1078.7656,281.6875 1078.7656,279.9844 L1078.7656,278.8906 C1078.7656,277.1094 1080.0156,275.7969 1081.75,275.7969 C1082.3281,275.7969 1082.9375,275.9531 1083.4063,276.2031 C1083.8906,276.4844 1084.0625,276.7031 1084.1563,277.1094 C1084.2188,277.5156 1084.25,277.6406 1084.3906,277.7656 C1084.5313,277.9063 1084.7656,278.0156 1084.9844,278.0156 C1085.25,278.0156 1085.5156,277.875 1085.6875,277.6563 C1085.7969,277.5 1085.8281,277.3125 1085.8281,276.8906 L1085.8281,275.4688 C1085.8281,275.0313 1085.8125,274.9063 1085.7188,274.75 C1085.5625,274.4844 1085.2813,274.3438 1084.9844,274.3438 C1084.6875,274.3438 1084.4844,274.4375 1084.2656,274.75 L1084.0938,274.6719 Z " fill="#000000"/><text fill="#000000" font-family="sans-serif" font-size="14" lengthAdjust="spacing" textLength="26" x="1102.25" y="283.8467">List</text><line style="stroke:#181818;stroke-width:0.5;" x1="981.5" x2="1216.5" y1="295" y2="295"/><polygon fill="none" points="991.5,303.6484,995.5,307.6484,991.5,311.6484,987.5,307.6484" style="stroke:#B38D22;stroke-width:1.0;"/><text fill="#000000" font-family="sans-serif" font-size="14" lengthAdjust="spacing" textLength="83" x="1000.5" y="311.9951">type = LIST</text><polygon fill="none" points="991.5,319.9453,995.5,323.9453,991.5,327.9453,987.5,323.9453" style="stroke:#B38D22;stroke-width:1.0;"/><text fill="#000000" font-family="sans-serif" font-size="14" lengthAdjust="spacing" textLength="88" x="1000.5" y="328.292">String name</text><polygon fill="none" points="991.5,336.2422,995.5,340.2422,991.5,344.2422,987.5,340.2422" style="stroke:#B38D22;stroke-width:1.0;"/><text fill="#000000" font-family="sans-serif" font-size="14" lengthAdjust="spacing" textLength="79" x="1000.5" y="344.5889">String text</text><line style="stroke:#181818;stroke-width:0.5;" x1="981.5" x2="1216.5" y1="351.8906" y2="351.8906"/><ellipse cx="991.5" cy="365.5391" fill="#84BE84" rx="3" ry="3" style="stroke:#038048;stroke-width:1.0;"/><text fill="#000000" font-family="sans-serif" font-size="14" lengthAdjust="spacing" textLength="211" x="1000.5" y="368.8857">List(String name, String text)</text></g><!--class PlaceType--><g id="elem_PlaceType"><rect codeLine="64" fill="#F1F1F1" height="80.5938" id="PlaceType" rx="2.5" ry="2.5" style="stroke:#181818;stroke-width:0.5;" width="106" x="1527" y="279"/><ellipse cx="1542" cy="295" fill="#EB937F" rx="11" ry="11" style="stroke:#181818;stroke-width:1.0;"/><path d="M1540.7969,295.875 L1542.25,295.875 L1542.25,295.9844 C1542.25,296.3906 1542.2813,296.5469 1542.3594,296.7031 C1542.5156,296.9531 1542.7969,297.1094 1543.0938,297.1094 C1543.3438,297.1094 1543.6094,296.9688 1543.7656,296.75 C1543.8906,296.5938 1543.9219,296.4375 1543.9219,295.9844 L1543.9219,294.0625 C1543.9219,293.9063 1543.9219,293.8594 1543.9063,293.7031 C1543.8438,293.2344 1543.5313,292.9219 1543.0781,292.9219 C1542.8281,292.9219 1542.5625,293.0625 1542.3906,293.2813 C1542.2813,293.4531 1542.25,293.6094 1542.25,294.0625 L1542.25,294.1875 L1540.7969,294.1875 L1540.7969,291.7813 L1544.7813,291.7813 L1544.7813,292.6406 C1544.7813,293.0469 1544.8125,293.2188 1544.8906,293.375 C1545.0625,293.625 1545.3438,293.7813 1545.625,293.7813 C1545.8906,293.7813 1546.1563,293.6406 1546.3281,293.4219 C1546.4375,293.25 1546.4688,293.1094 1546.4688,292.6406 L1546.4688,290.0938 L1538.8438,290.0938 C1538.4063,290.0938 1538.2813,290.1094 1538.125,290.2031 C1537.875,290.3594 1537.7188,290.6563 1537.7188,290.9375 C1537.7188,291.2188 1537.8594,291.4688 1538.0781,291.6406 C1538.2344,291.75 1538.4219,291.7813 1538.8438,291.7813 L1539.0938,291.7813 L1539.0938,298.2969 L1538.8438,298.2969 C1538.4375,298.2969 1538.2813,298.3125 1538.125,298.4219 C1537.875,298.5938 1537.7188,298.8594 1537.7188,299.1563 C1537.7188,299.4219 1537.8594,299.6719 1538.0781,299.8281 C1538.2188,299.9531 1538.4531,300 1538.8438,300 L1546.8438,300 L1546.8438,297.4219 C1546.8438,296.9844 1546.8125,296.8438 1546.7344,296.6875 C1546.5625,296.4375 1546.2813,296.2813 1546,296.2813 C1545.7344,296.2813 1545.4688,296.3906 1545.2969,296.6406 C1545.1875,296.7969 1545.1563,296.9375 1545.1563,297.4219 L1545.1563,298.2969 L1540.7969,298.2969 L1540.7969,295.875 Z " fill="#000000"/><text fill="#000000" font-family="sans-serif" font-size="14" lengthAdjust="spacing" textLength="74" x="1556" y="299.8467">PlaceType</text><line style="stroke:#181818;stroke-width:0.5;" x1="1528" x2="1632" y1="311" y2="311"/><text fill="#000000" font-family="sans-serif" font-size="14" lengthAdjust="spacing" textLength="70" x="1533" y="327.9951">FREEDOM</text><text fill="#000000" font-family="sans-serif" font-size="14" lengthAdjust="spacing" textLength="70" x="1533" y="344.292">HOSPITAL</text><line style="stroke:#181818;stroke-width:0.5;" x1="1528" x2="1632" y1="351.5938" y2="351.5938"/></g><!--class Place--><g id="elem_Place"><rect codeLine="71" fill="#F1F1F1" height="129.4844" id="Place" rx="2.5" ry="2.5" style="stroke:#181818;stroke-width:0.5;" width="282" x="1439" y="57.5"/><ellipse cx="1556.75" cy="73.5" fill="#A9DCDF" rx="11" ry="11" style="stroke:#181818;stroke-width:1.0;"/><path d="M1558.8281,75.3125 L1559.2188,76.2969 L1558.8281,76.2969 C1558.375,76.2969 1558.2656,76.3125 1558.1094,76.4219 C1557.8594,76.5781 1557.7031,76.8594 1557.7031,77.1563 C1557.7031,77.4219 1557.8438,77.6719 1558.0625,77.8281 C1558.2031,77.9531 1558.4063,78 1558.8281,78 L1561.1875,78 C1561.5469,78 1561.7656,77.9688 1561.9063,77.875 C1562.1563,77.7344 1562.3125,77.4375 1562.3125,77.1563 C1562.3125,76.875 1562.1719,76.625 1561.9531,76.4688 C1561.7813,76.3281 1561.625,76.2969 1561.1563,76.2969 L1557.7656,68.0938 L1554.0938,68.0938 C1553.6406,68.0938 1553.5156,68.1094 1553.3594,68.2031 C1553.1094,68.375 1552.9531,68.6563 1552.9531,68.9375 C1552.9531,69.2188 1553.0938,69.4688 1553.3125,69.6406 C1553.4844,69.75 1553.6563,69.7813 1554.0938,69.7813 L1555.1719,69.7813 L1552.5313,76.2969 C1552.1094,76.2969 1551.9531,76.3125 1551.7969,76.4219 C1551.5469,76.5781 1551.3906,76.8594 1551.3906,77.1563 C1551.3906,77.7188 1551.7656,78 1552.5156,78 L1554.7813,78 C1555.1406,78 1555.3594,77.9688 1555.4844,77.875 C1555.75,77.7344 1555.8906,77.4375 1555.8906,77.1563 C1555.8906,76.875 1555.7656,76.625 1555.5469,76.4531 C1555.375,76.3281 1555.2344,76.2969 1554.7813,76.2969 L1554.3906,76.2969 L1554.7813,75.3125 L1558.8281,75.3125 Z M1558.125,73.6094 L1555.4531,73.6094 L1556.7969,70.3438 L1558.125,73.6094 Z " fill="#000000"/><text fill="#000000" font-family="sans-serif" font-size="14" font-style="italic" lengthAdjust="spacing" textLength="38" x="1577.25" y="78.3467">Place</text><line style="stroke:#181818;stroke-width:0.5;" x1="1440" x2="1720" y1="89.5" y2="89.5"/><polygon fill="none" points="1450,98.1484,1454,102.1484,1450,106.1484,1446,102.1484" style="stroke:#B38D22;stroke-width:1.0;"/><text fill="#000000" font-family="sans-serif" font-size="14" lengthAdjust="spacing" textLength="112" x="1459" y="106.4951">PlaceType type</text><polygon fill="none" points="1450,114.4453,1454,118.4453,1450,122.4453,1446,118.4453" style="stroke:#B38D22;stroke-width:1.0;"/><text fill="#000000" font-family="sans-serif" font-size="14" lengthAdjust="spacing" textLength="88" x="1459" y="122.792">String name</text><line style="stroke:#181818;stroke-width:0.5;" x1="1440" x2="1720" y1="130.0938" y2="130.0938"/><ellipse cx="1450" cy="143.7422" fill="#84BE84" rx="3" ry="3" style="stroke:#038048;stroke-width:1.0;"/><text fill="#000000" font-family="sans-serif" font-size="14" lengthAdjust="spacing" textLength="256" x="1459" y="147.0889">Place(PlaceType type, String name)</text><ellipse cx="1450" cy="160.0391" fill="#84BE84" rx="3" ry="3" style="stroke:#038048;stroke-width:1.0;"/><text fill="#000000" font-family="sans-serif" font-size="14" lengthAdjust="spacing" textLength="124" x="1459" y="163.3857">String getName()</text><ellipse cx="1450" cy="176.3359" fill="#84BE84" rx="3" ry="3" style="stroke:#038048;stroke-width:1.0;"/><text fill="#000000" font-family="sans-serif" font-size="14" lengthAdjust="spacing" textLength="119" x="1459" y="179.6826">String getType()</text></g><!--class Freedom--><g id="elem_Freedom"><rect codeLine="80" fill="#F1F1F1" height="96.8906" id="Freedom" rx="2.5" ry="2.5" style="stroke:#181818;stroke-width:0.5;" width="149" x="1668.5" y="271"/><ellipse cx="1707.35" cy="287" fill="#ADD1B2" rx="11" ry="11" style="stroke:#181818;stroke-width:1.0;"/><path d="M1709.6938,282.6719 C1708.7563,282.2344 1708.1625,282.0938 1707.2875,282.0938 C1704.6625,282.0938 1702.6625,284.1719 1702.6625,286.8906 L1702.6625,288.0156 C1702.6625,290.5938 1704.7719,292.4844 1707.6625,292.4844 C1708.8813,292.4844 1710.0375,292.1875 1710.7875,291.6406 C1711.3656,291.2344 1711.6938,290.7813 1711.6938,290.3906 C1711.6938,289.9375 1711.3031,289.5469 1710.8344,289.5469 C1710.6156,289.5469 1710.4125,289.625 1710.225,289.8125 C1709.7719,290.2969 1709.7719,290.2969 1709.5844,290.3906 C1709.1625,290.6563 1708.475,290.7813 1707.7094,290.7813 C1705.6625,290.7813 1704.3656,289.6875 1704.3656,287.9844 L1704.3656,286.8906 C1704.3656,285.1094 1705.6156,283.7969 1707.35,283.7969 C1707.9281,283.7969 1708.5375,283.9531 1709.0063,284.2031 C1709.4906,284.4844 1709.6625,284.7031 1709.7563,285.1094 C1709.8188,285.5156 1709.85,285.6406 1709.9906,285.7656 C1710.1313,285.9063 1710.3656,286.0156 1710.5844,286.0156 C1710.85,286.0156 1711.1156,285.875 1711.2875,285.6563 C1711.3969,285.5 1711.4281,285.3125 1711.4281,284.8906 L1711.4281,283.4688 C1711.4281,283.0313 1711.4125,282.9063 1711.3188,282.75 C1711.1625,282.4844 1710.8813,282.3438 1710.5844,282.3438 C1710.2875,282.3438 1710.0844,282.4375 1709.8656,282.75 L1709.6938,282.6719 Z " fill="#000000"/><text fill="#000000" font-family="sans-serif" font-size="14" lengthAdjust="spacing" textLength="64" x="1726.65" y="291.8467">Freedom</text><line style="stroke:#181818;stroke-width:0.5;" x1="1669.5" x2="1816.5" y1="303" y2="303"/><polygon fill="none" points="1679.5,311.6484,1683.5,315.6484,1679.5,319.6484,1675.5,315.6484" style="stroke:#B38D22;stroke-width:1.0;"/><text fill="#000000" font-family="sans-serif" font-size="14" lengthAdjust="spacing" textLength="123" x="1688.5" y="319.9951">type = FREEDOM</text><polygon fill="none" points="1679.5,327.9453,1683.5,331.9453,1679.5,335.9453,1675.5,331.9453" style="stroke:#B38D22;stroke-width:1.0;"/><text fill="#000000" font-family="sans-serif" font-size="14" lengthAdjust="spacing" textLength="123" x="1688.5" y="336.292">name = &#1057;&#1074;&#1086;&#1073;&#1086;&#1076;&#1072;</text><line style="stroke:#181818;stroke-width:0.5;" x1="1669.5" x2="1816.5" y1="343.5938" y2="343.5938"/><ellipse cx="1679.5" cy="357.2422" fill="#84BE84" rx="3" ry="3" style="stroke:#038048;stroke-width:1.0;"/><text fill="#000000" font-family="sans-serif" font-size="14" lengthAdjust="spacing" textLength="74" x="1688.5" y="360.5889">Freedom()</text></g><!--class Hospital--><g id="elem_Hospital"><rect codeLine="86" fill="#F1F1F1" height="113.1875" id="Hospital" rx="2.5" ry="2.5" style="stroke:#181818;stroke-width:0.5;" width="208" x="1284" y="263"/><ellipse cx="1354.25" cy="279" fill="#ADD1B2" rx="11" ry="11" style="stroke:#181818;stroke-width:1.0;"/><path d="M1356.5938,274.6719 C1355.6563,274.2344 1355.0625,274.0938 1354.1875,274.0938 C1351.5625,274.0938 1349.5625,276.1719 1349.5625,278.8906 L1349.5625,280.0156 C1349.5625,282.5938 1351.6719,284.4844 1354.5625,284.4844 C1355.7813,284.4844 1356.9375,284.1875 1357.6875,283.6406 C1358.2656,283.2344 1358.5938,282.7813 1358.5938,282.3906 C1358.5938,281.9375 1358.2031,281.5469 1357.7344,281.5469 C1357.5156,281.5469 1357.3125,281.625 1357.125,281.8125 C1356.6719,282.2969 1356.6719,282.2969 1356.4844,282.3906 C1356.0625,282.6563 1355.375,282.7813 1354.6094,282.7813 C1352.5625,282.7813 1351.2656,281.6875 1351.2656,279.9844 L1351.2656,278.8906 C1351.2656,277.1094 1352.5156,275.7969 1354.25,275.7969 C1354.8281,275.7969 1355.4375,275.9531 1355.9063,276.2031 C1356.3906,276.4844 1356.5625,276.7031 1356.6563,277.1094 C1356.7188,277.5156 1356.75,277.6406 1356.8906,277.7656 C1357.0313,277.9063 1357.2656,278.0156 1357.4844,278.0156 C1357.75,278.0156 1358.0156,277.875 1358.1875,277.6563 C1358.2969,277.5 1358.3281,277.3125 1358.3281,276.8906 L1358.3281,275.4688 C1358.3281,275.0313 1358.3125,274.9063 1358.2188,274.75 C1358.0625,274.4844 1357.7813,274.3438 1357.4844,274.3438 C1357.1875,274.3438 1356.9844,274.4375 1356.7656,274.75 L1356.5938,274.6719 Z " fill="#000000"/><text fill="#000000" font-family="sans-serif" font-size="14" lengthAdjust="spacing" textLength="59" x="1374.75" y="283.8467">Hospital</text><line style="stroke:#181818;stroke-width:0.5;" x1="1285" x2="1491" y1="295" y2="295"/><polygon fill="none" points="1295,303.6484,1299,307.6484,1295,311.6484,1291,307.6484" style="stroke:#B38D22;stroke-width:1.0;"/><text fill="#000000" font-family="sans-serif" font-size="14" lengthAdjust="spacing" textLength="123" x="1304" y="311.9951">type = HOSPITAL</text><polygon fill="none" points="1295,319.9453,1299,323.9453,1295,327.9453,1291,323.9453" style="stroke:#B38D22;stroke-width:1.0;"/><text fill="#000000" font-family="sans-serif" font-size="14" lengthAdjust="spacing" textLength="88" x="1304" y="328.292">String name</text><line style="stroke:#181818;stroke-width:0.5;" x1="1285" x2="1491" y1="335.5938" y2="335.5938"/><ellipse cx="1295" cy="349.2422" fill="#84BE84" rx="3" ry="3" style="stroke:#038048;stroke-width:1.0;"/><text fill="#000000" font-family="sans-serif" font-size="14" lengthAdjust="spacing" textLength="69" x="1304" y="352.5889">Hospital()</text><ellipse cx="1295" cy="365.5391" fill="#84BE84" rx="3" ry="3" style="stroke:#038048;stroke-width:1.0;"/><text fill="#000000" font-family="sans-serif" font-size="14" lengthAdjust="spacing" textLength="182" x="1304" y="368.8857">Discharge(Human human)</text></g><!--class Human--><g id="elem_Human"><rect codeLine="96" fill="#F1F1F1" height="162.0781" id="Human" rx="2.5" ry="2.5" style="stroke:#181818;stroke-width:0.5;" width="175" x="2931.5" y="41"/><ellipse cx="2988.75" cy="57" fill="#A9DCDF" rx="11" ry="11" style="stroke:#181818;stroke-width:1.0;"/><path d="M2990.8281,58.8125 L2991.2188,59.7969 L2990.8281,59.7969 C2990.375,59.7969 2990.2656,59.8125 2990.1094,59.9219 C2989.8594,60.0781 2989.7031,60.3594 2989.7031,60.6563 C2989.7031,60.9219 2989.8438,61.1719 2990.0625,61.3281 C2990.2031,61.4531 2990.4063,61.5 2990.8281,61.5 L2993.1875,61.5 C2993.5469,61.5 2993.7656,61.4688 2993.9063,61.375 C2994.1563,61.2344 2994.3125,60.9375 2994.3125,60.6563 C2994.3125,60.375 2994.1719,60.125 2993.9531,59.9688 C2993.7813,59.8281 2993.625,59.7969 2993.1563,59.7969 L2989.7656,51.5938 L2986.0938,51.5938 C2985.6406,51.5938 2985.5156,51.6094 2985.3594,51.7031 C2985.1094,51.875 2984.9531,52.1563 2984.9531,52.4375 C2984.9531,52.7188 2985.0938,52.9688 2985.3125,53.1406 C2985.4844,53.25 2985.6563,53.2813 2986.0938,53.2813 L2987.1719,53.2813 L2984.5313,59.7969 C2984.1094,59.7969 2983.9531,59.8125 2983.7969,59.9219 C2983.5469,60.0781 2983.3906,60.3594 2983.3906,60.6563 C2983.3906,61.2188 2983.7656,61.5 2984.5156,61.5 L2986.7813,61.5 C2987.1406,61.5 2987.3594,61.4688 2987.4844,61.375 C2987.75,61.2344 2987.8906,60.9375 2987.8906,60.6563 C2987.8906,60.375 2987.7656,60.125 2987.5469,59.9531 C2987.375,59.8281 2987.2344,59.7969 2986.7813,59.7969 L2986.3906,59.7969 L2986.7813,58.8125 L2990.8281,58.8125 Z M2990.125,57.1094 L2987.4531,57.1094 L2988.7969,53.8438 L2990.125,57.1094 Z " fill="#000000"/><text fill="#000000" font-family="sans-serif" font-size="14" font-style="italic" lengthAdjust="spacing" textLength="52" x="3009.25" y="61.8467">Human</text><line style="stroke:#181818;stroke-width:0.5;" x1="2932.5" x2="3105.5" y1="73" y2="73"/><polygon fill="none" points="2942.5,81.6484,2946.5,85.6484,2942.5,89.6484,2938.5,85.6484" style="stroke:#B38D22;stroke-width:1.0;"/><text fill="#000000" font-family="sans-serif" font-size="14" lengthAdjust="spacing" textLength="88" x="2951.5" y="89.9951">String name</text><polygon fill="none" points="2942.5,97.9453,2946.5,101.9453,2942.5,105.9453,2938.5,101.9453" style="stroke:#B38D22;stroke-width:1.0;"/><text fill="#000000" font-family="sans-serif" font-size="14" lengthAdjust="spacing" textLength="100" x="2951.5" y="106.292">Place location</text><polygon fill="none" points="2942.5,114.2422,2946.5,118.2422,2942.5,122.2422,2938.5,118.2422" style="stroke:#B38D22;stroke-width:1.0;"/><text fill="#000000" font-family="sans-serif" font-size="14" lengthAdjust="spacing" textLength="112" x="2951.5" y="122.5889">Disease disease</text><line style="stroke:#181818;stroke-width:0.5;" x1="2932.5" x2="3105.5" y1="129.8906" y2="129.8906"/><ellipse cx="2942.5" cy="143.5391" fill="#84BE84" rx="3" ry="3" style="stroke:#038048;stroke-width:1.0;"/><text fill="#000000" font-family="sans-serif" font-size="14" lengthAdjust="spacing" textLength="118" x="2951.5" y="146.8857">String toString()</text><ellipse cx="2942.5" cy="159.8359" fill="#84BE84" rx="3" ry="3" style="stroke:#038048;stroke-width:1.0;"/><text fill="#000000" font-family="sans-serif" font-size="14" lengthAdjust="spacing" textLength="139" x="2951.5" y="163.1826">Place getLocation()</text><ellipse cx="2942.5" cy="176.1328" fill="#84BE84" rx="3" ry="3" style="stroke:#038048;stroke-width:1.0;"/><text fill="#000000" font-family="sans-serif" font-size="14" lengthAdjust="spacing" textLength="95" x="2951.5" y="179.4795">setLocation()</text><ellipse cx="2942.5" cy="192.4297" fill="#84BE84" rx="3" ry="3" style="stroke:#038048;stroke-width:1.0;"/><text fill="#000000" font-family="sans-serif" font-size="14" lengthAdjust="spacing" textLength="149" x="2951.5" y="195.7764">Disease getDisease()</text></g><!--class Angry--><g id="elem_Angry"><rect codeLine="106" fill="#F1F1F1" height="64.2969" id="Angry" rx="2.5" ry="2.5" style="stroke:#181818;stroke-width:0.5;" width="116" x="2393" y="90"/><ellipse cx="2426.9" cy="106" fill="#B4A7E5" rx="11" ry="11" style="stroke:#181818;stroke-width:1.0;"/><path d="M2427.8531,102.7813 L2429.5719,102.7813 C2429.9625,102.7813 2430.15,102.75 2430.275,102.6719 C2430.5406,102.5156 2430.6813,102.2344 2430.6813,101.9375 C2430.6813,101.6719 2430.5719,101.4063 2430.3375,101.2344 C2430.1656,101.125 2430.025,101.0938 2429.5719,101.0938 L2424.4313,101.0938 C2423.9938,101.0938 2423.8688,101.1094 2423.7125,101.2031 C2423.4625,101.3594 2423.3063,101.6563 2423.3063,101.9375 C2423.3063,102.2188 2423.4469,102.4688 2423.6656,102.6406 C2423.8219,102.75 2424.0094,102.7813 2424.4313,102.7813 L2426.15,102.7813 L2426.15,109.2969 L2424.4313,109.2969 C2423.9938,109.2969 2423.8688,109.3125 2423.7125,109.4219 C2423.4625,109.5781 2423.3063,109.8594 2423.3063,110.1563 C2423.3063,110.4063 2423.4469,110.6719 2423.6656,110.8281 C2423.8219,110.9531 2424.025,111 2424.4313,111 L2429.5719,111 C2430.3219,111 2430.6813,110.7188 2430.6813,110.1563 C2430.6813,109.875 2430.5719,109.625 2430.3375,109.4531 C2430.1656,109.3281 2430.025,109.2969 2429.5719,109.2969 L2427.8531,109.2969 L2427.8531,102.7813 Z " fill="#000000"/><text fill="#000000" font-family="sans-serif" font-size="14" font-style="italic" lengthAdjust="spacing" textLength="42" x="2445.1" y="110.8467">Angry</text><line style="stroke:#181818;stroke-width:0.5;" x1="2394" x2="2508" y1="122" y2="122"/><line style="stroke:#181818;stroke-width:0.5;" x1="2394" x2="2508" y1="130" y2="130"/><ellipse cx="2404" cy="143.6484" fill="#84BE84" rx="3" ry="3" style="stroke:#038048;stroke-width:1.0;"/><text fill="#000000" font-family="sans-serif" font-size="14" lengthAdjust="spacing" textLength="90" x="2413" y="146.9951">tearingHair()</text></g><!--class Adult--><g id="elem_Adult"><rect codeLine="110" fill="#F1F1F1" height="80.5938" id="Adult" rx="2.5" ry="2.5" style="stroke:#181818;stroke-width:0.5;" width="233" x="2544.5" y="81.5"/><ellipse cx="2638.25" cy="97.5" fill="#B4A7E5" rx="11" ry="11" style="stroke:#181818;stroke-width:1.0;"/><path d="M2639.2031,94.2813 L2640.9219,94.2813 C2641.3125,94.2813 2641.5,94.25 2641.625,94.1719 C2641.8906,94.0156 2642.0313,93.7344 2642.0313,93.4375 C2642.0313,93.1719 2641.9219,92.9063 2641.6875,92.7344 C2641.5156,92.625 2641.375,92.5938 2640.9219,92.5938 L2635.7813,92.5938 C2635.3438,92.5938 2635.2188,92.6094 2635.0625,92.7031 C2634.8125,92.8594 2634.6563,93.1563 2634.6563,93.4375 C2634.6563,93.7188 2634.7969,93.9688 2635.0156,94.1406 C2635.1719,94.25 2635.3594,94.2813 2635.7813,94.2813 L2637.5,94.2813 L2637.5,100.7969 L2635.7813,100.7969 C2635.3438,100.7969 2635.2188,100.8125 2635.0625,100.9219 C2634.8125,101.0781 2634.6563,101.3594 2634.6563,101.6563 C2634.6563,101.9063 2634.7969,102.1719 2635.0156,102.3281 C2635.1719,102.4531 2635.375,102.5 2635.7813,102.5 L2640.9219,102.5 C2641.6719,102.5 2642.0313,102.2188 2642.0313,101.6563 C2642.0313,101.375 2641.9219,101.125 2641.6875,100.9531 C2641.5156,100.8281 2641.375,100.7969 2640.9219,100.7969 L2639.2031,100.7969 L2639.2031,94.2813 Z " fill="#000000"/><text fill="#000000" font-family="sans-serif" font-size="14" font-style="italic" lengthAdjust="spacing" textLength="37" x="2658.75" y="102.3467">Adult</text><line style="stroke:#181818;stroke-width:0.5;" x1="2545.5" x2="2776.5" y1="113.5" y2="113.5"/><line style="stroke:#181818;stroke-width:0.5;" x1="2545.5" x2="2776.5" y1="121.5" y2="121.5"/><ellipse cx="2555.5" cy="135.1484" fill="#84BE84" rx="3" ry="3" style="stroke:#038048;stroke-width:1.0;"/><text fill="#000000" font-family="sans-serif" font-size="14" lengthAdjust="spacing" textLength="207" x="2564.5" y="138.4951">String read(Readable target)</text><ellipse cx="2555.5" cy="151.4453" fill="#84BE84" rx="3" ry="3" style="stroke:#038048;stroke-width:1.0;"/><text fill="#000000" font-family="sans-serif" font-size="14" lengthAdjust="spacing" textLength="81" x="2564.5" y="154.792">String say()</text></g><!--class Meduniza--><g id="elem_Meduniza"><rect codeLine="115" fill="#F1F1F1" height="113.1875" id="Meduniza" rx="2.5" ry="2.5" style="stroke:#181818;stroke-width:0.5;" width="233" x="2783.5" y="263"/><ellipse cx="2862.25" cy="279" fill="#ADD1B2" rx="11" ry="11" style="stroke:#181818;stroke-width:1.0;"/><path d="M2864.5938,274.6719 C2863.6563,274.2344 2863.0625,274.0938 2862.1875,274.0938 C2859.5625,274.0938 2857.5625,276.1719 2857.5625,278.8906 L2857.5625,280.0156 C2857.5625,282.5938 2859.6719,284.4844 2862.5625,284.4844 C2863.7813,284.4844 2864.9375,284.1875 2865.6875,283.6406 C2866.2656,283.2344 2866.5938,282.7813 2866.5938,282.3906 C2866.5938,281.9375 2866.2031,281.5469 2865.7344,281.5469 C2865.5156,281.5469 2865.3125,281.625 2865.125,281.8125 C2864.6719,282.2969 2864.6719,282.2969 2864.4844,282.3906 C2864.0625,282.6563 2863.375,282.7813 2862.6094,282.7813 C2860.5625,282.7813 2859.2656,281.6875 2859.2656,279.9844 L2859.2656,278.8906 C2859.2656,277.1094 2860.5156,275.7969 2862.25,275.7969 C2862.8281,275.7969 2863.4375,275.9531 2863.9063,276.2031 C2864.3906,276.4844 2864.5625,276.7031 2864.6563,277.1094 C2864.7188,277.5156 2864.75,277.6406 2864.8906,277.7656 C2865.0313,277.9063 2865.2656,278.0156 2865.4844,278.0156 C2865.75,278.0156 2866.0156,277.875 2866.1875,277.6563 C2866.2969,277.5 2866.3281,277.3125 2866.3281,276.8906 L2866.3281,275.4688 C2866.3281,275.0313 2866.3125,274.9063 2866.2188,274.75 C2866.0625,274.4844 2865.7813,274.3438 2865.4844,274.3438 C2865.1875,274.3438 2864.9844,274.4375 2864.7656,274.75 L2864.5938,274.6719 Z " fill="#000000"/><text fill="#000000" font-family="sans-serif" font-size="14" lengthAdjust="spacing" textLength="67" x="2882.75" y="283.8467">Meduniza</text><line style="stroke:#181818;stroke-width:0.5;" x1="2784.5" x2="3015.5" y1="295" y2="295"/><polygon fill="none" points="2794.5,303.6484,2798.5,307.6484,2794.5,311.6484,2790.5,307.6484" style="stroke:#B38D22;stroke-width:1.0;"/><text fill="#000000" font-family="sans-serif" font-size="14" lengthAdjust="spacing" textLength="134" x="2803.5" y="311.9951">name = &#1052;&#1077;&#1076;&#1091;&#1085;&#1080;&#1094;&#1072;</text><line style="stroke:#181818;stroke-width:0.5;" x1="2784.5" x2="3015.5" y1="319.2969" y2="319.2969"/><ellipse cx="2794.5" cy="332.9453" fill="#84BE84" rx="3" ry="3" style="stroke:#038048;stroke-width:1.0;"/><text fill="#000000" font-family="sans-serif" font-size="14" lengthAdjust="spacing" textLength="139" x="2803.5" y="336.292">Place getLocation()</text><ellipse cx="2794.5" cy="349.2422" fill="#84BE84" rx="3" ry="3" style="stroke:#038048;stroke-width:1.0;"/><text fill="#000000" font-family="sans-serif" font-size="14" lengthAdjust="spacing" textLength="149" x="2803.5" y="352.5889">Disease getDisease()</text><ellipse cx="2794.5" cy="365.5391" fill="#84BE84" rx="3" ry="3" style="stroke:#038048;stroke-width:1.0;"/><text fill="#000000" font-family="sans-serif" font-size="14" lengthAdjust="spacing" textLength="207" x="2803.5" y="368.8857">String read(Readable target)</text></g><!--class Vorchyn--><g id="elem_Vorchyn"><rect codeLine="122" fill="#F1F1F1" height="113.1875" id="Vorchyn" rx="2.5" ry="2.5" style="stroke:#181818;stroke-width:0.5;" width="175" x="2363.5" y="263"/><ellipse cx="2417.25" cy="279" fill="#ADD1B2" rx="11" ry="11" style="stroke:#181818;stroke-width:1.0;"/><path d="M2419.5938,274.6719 C2418.6563,274.2344 2418.0625,274.0938 2417.1875,274.0938 C2414.5625,274.0938 2412.5625,276.1719 2412.5625,278.8906 L2412.5625,280.0156 C2412.5625,282.5938 2414.6719,284.4844 2417.5625,284.4844 C2418.7813,284.4844 2419.9375,284.1875 2420.6875,283.6406 C2421.2656,283.2344 2421.5938,282.7813 2421.5938,282.3906 C2421.5938,281.9375 2421.2031,281.5469 2420.7344,281.5469 C2420.5156,281.5469 2420.3125,281.625 2420.125,281.8125 C2419.6719,282.2969 2419.6719,282.2969 2419.4844,282.3906 C2419.0625,282.6563 2418.375,282.7813 2417.6094,282.7813 C2415.5625,282.7813 2414.2656,281.6875 2414.2656,279.9844 L2414.2656,278.8906 C2414.2656,277.1094 2415.5156,275.7969 2417.25,275.7969 C2417.8281,275.7969 2418.4375,275.9531 2418.9063,276.2031 C2419.3906,276.4844 2419.5625,276.7031 2419.6563,277.1094 C2419.7188,277.5156 2419.75,277.6406 2419.8906,277.7656 C2420.0313,277.9063 2420.2656,278.0156 2420.4844,278.0156 C2420.75,278.0156 2421.0156,277.875 2421.1875,277.6563 C2421.2969,277.5 2421.3281,277.3125 2421.3281,276.8906 L2421.3281,275.4688 C2421.3281,275.0313 2421.3125,274.9063 2421.2188,274.75 C2421.0625,274.4844 2420.7813,274.3438 2420.4844,274.3438 C2420.1875,274.3438 2419.9844,274.4375 2419.7656,274.75 L2419.5938,274.6719 Z " fill="#000000"/><text fill="#000000" font-family="sans-serif" font-size="14" lengthAdjust="spacing" textLength="59" x="2437.75" y="283.8467">Vorchyn</text><line style="stroke:#181818;stroke-width:0.5;" x1="2364.5" x2="2537.5" y1="295" y2="295"/><polygon fill="none" points="2374.5,303.6484,2378.5,307.6484,2374.5,311.6484,2370.5,307.6484" style="stroke:#B38D22;stroke-width:1.0;"/><text fill="#000000" font-family="sans-serif" font-size="14" lengthAdjust="spacing" textLength="113" x="2383.5" y="311.9951">name = &#1042;&#1086;&#1088;&#1095;&#1091;&#1085;</text><line style="stroke:#181818;stroke-width:0.5;" x1="2364.5" x2="2537.5" y1="319.2969" y2="319.2969"/><ellipse cx="2374.5" cy="332.9453" fill="#84BE84" rx="3" ry="3" style="stroke:#038048;stroke-width:1.0;"/><text fill="#000000" font-family="sans-serif" font-size="14" lengthAdjust="spacing" textLength="139" x="2383.5" y="336.292">Place getLocation()</text><ellipse cx="2374.5" cy="349.2422" fill="#84BE84" rx="3" ry="3" style="stroke:#038048;stroke-width:1.0;"/><text fill="#000000" font-family="sans-serif" font-size="14" lengthAdjust="spacing" textLength="149" x="2383.5" y="352.5889">Disease getDisease()</text><ellipse cx="2374.5" cy="365.5391" fill="#84BE84" rx="3" ry="3" style="stroke:#038048;stroke-width:1.0;"/><text fill="#000000" font-family="sans-serif" font-size="14" lengthAdjust="spacing" textLength="81" x="2383.5" y="368.8857">String say()</text></g><!--class Pilulkin--><g id="elem_Pilulkin"><rect codeLine="129" fill="#F1F1F1" height="113.1875" id="Pilulkin" rx="2.5" ry="2.5" style="stroke:#181818;stroke-width:0.5;" width="175" x="2573.5" y="263"/><ellipse cx="2631.25" cy="279" fill="#ADD1B2" rx="11" ry="11" style="stroke:#181818;stroke-width:1.0;"/><path d="M2633.5938,274.6719 C2632.6563,274.2344 2632.0625,274.0938 2631.1875,274.0938 C2628.5625,274.0938 2626.5625,276.1719 2626.5625,278.8906 L2626.5625,280.0156 C2626.5625,282.5938 2628.6719,284.4844 2631.5625,284.4844 C2632.7813,284.4844 2633.9375,284.1875 2634.6875,283.6406 C2635.2656,283.2344 2635.5938,282.7813 2635.5938,282.3906 C2635.5938,281.9375 2635.2031,281.5469 2634.7344,281.5469 C2634.5156,281.5469 2634.3125,281.625 2634.125,281.8125 C2633.6719,282.2969 2633.6719,282.2969 2633.4844,282.3906 C2633.0625,282.6563 2632.375,282.7813 2631.6094,282.7813 C2629.5625,282.7813 2628.2656,281.6875 2628.2656,279.9844 L2628.2656,278.8906 C2628.2656,277.1094 2629.5156,275.7969 2631.25,275.7969 C2631.8281,275.7969 2632.4375,275.9531 2632.9063,276.2031 C2633.3906,276.4844 2633.5625,276.7031 2633.6563,277.1094 C2633.7188,277.5156 2633.75,277.6406 2633.8906,277.7656 C2634.0313,277.9063 2634.2656,278.0156 2634.4844,278.0156 C2634.75,278.0156 2635.0156,277.875 2635.1875,277.6563 C2635.2969,277.5 2635.3281,277.3125 2635.3281,276.8906 L2635.3281,275.4688 C2635.3281,275.0313 2635.3125,274.9063 2635.2188,274.75 C2635.0625,274.4844 2634.7813,274.3438 2634.4844,274.3438 C2634.1875,274.3438 2633.9844,274.4375 2633.7656,274.75 L2633.5938,274.6719 Z " fill="#000000"/><text fill="#000000" font-family="sans-serif" font-size="14" lengthAdjust="spacing" textLength="51" x="2651.75" y="283.8467">Pilulkin</text><line style="stroke:#181818;stroke-width:0.5;" x1="2574.5" x2="2747.5" y1="295" y2="295"/><polygon fill="none" points="2584.5,303.6484,2588.5,307.6484,2584.5,311.6484,2580.5,307.6484" style="stroke:#B38D22;stroke-width:1.0;"/><text fill="#000000" font-family="sans-serif" font-size="14" lengthAdjust="spacing" textLength="144" x="2593.5" y="311.9951">name = &#1055;&#1080;&#1083;&#1102;&#1083;&#1100;&#1082;&#1080;&#1085;</text><line style="stroke:#181818;stroke-width:0.5;" x1="2574.5" x2="2747.5" y1="319.2969" y2="319.2969"/><ellipse cx="2584.5" cy="332.9453" fill="#84BE84" rx="3" ry="3" style="stroke:#038048;stroke-width:1.0;"/><text fill="#000000" font-family="sans-serif" font-size="14" lengthAdjust="spacing" textLength="139" x="2593.5" y="336.292">Place getLocation()</text><ellipse cx="2584.5" cy="349.2422" fill="#84BE84" rx="3" ry="3" style="stroke:#038048;stroke-width:1.0;"/><text fill="#000000" font-family="sans-serif" font-size="14" lengthAdjust="spacing" textLength="149" x="2593.5" y="352.5889">Disease getDisease()</text><ellipse cx="2584.5" cy="365.5391" fill="#84BE84" rx="3" ry="3" style="stroke:#038048;stroke-width:1.0;"/><text fill="#000000" font-family="sans-serif" font-size="14" lengthAdjust="spacing" textLength="81" x="2593.5" y="368.8857">String say()</text></g><!--class Neboska--><g id="elem_Neboska"><rect codeLine="136" fill="#F1F1F1" height="96.8906" id="Neboska" rx="2.5" ry="2.5" style="stroke:#181818;stroke-width:0.5;" width="175" x="3471.5" y="271"/><ellipse cx="3523.75" cy="287" fill="#ADD1B2" rx="11" ry="11" style="stroke:#181818;stroke-width:1.0;"/><path d="M3526.0938,282.6719 C3525.1563,282.2344 3524.5625,282.0938 3523.6875,282.0938 C3521.0625,282.0938 3519.0625,284.1719 3519.0625,286.8906 L3519.0625,288.0156 C3519.0625,290.5938 3521.1719,292.4844 3524.0625,292.4844 C3525.2813,292.4844 3526.4375,292.1875 3527.1875,291.6406 C3527.7656,291.2344 3528.0938,290.7813 3528.0938,290.3906 C3528.0938,289.9375 3527.7031,289.5469 3527.2344,289.5469 C3527.0156,289.5469 3526.8125,289.625 3526.625,289.8125 C3526.1719,290.2969 3526.1719,290.2969 3525.9844,290.3906 C3525.5625,290.6563 3524.875,290.7813 3524.1094,290.7813 C3522.0625,290.7813 3520.7656,289.6875 3520.7656,287.9844 L3520.7656,286.8906 C3520.7656,285.1094 3522.0156,283.7969 3523.75,283.7969 C3524.3281,283.7969 3524.9375,283.9531 3525.4063,284.2031 C3525.8906,284.4844 3526.0625,284.7031 3526.1563,285.1094 C3526.2188,285.5156 3526.25,285.6406 3526.3906,285.7656 C3526.5313,285.9063 3526.7656,286.0156 3526.9844,286.0156 C3527.25,286.0156 3527.5156,285.875 3527.6875,285.6563 C3527.7969,285.5 3527.8281,285.3125 3527.8281,284.8906 L3527.8281,283.4688 C3527.8281,283.0313 3527.8125,282.9063 3527.7188,282.75 C3527.5625,282.4844 3527.2813,282.3438 3526.9844,282.3438 C3526.6875,282.3438 3526.4844,282.4375 3526.2656,282.75 L3526.0938,282.6719 Z " fill="#000000"/><text fill="#000000" font-family="sans-serif" font-size="14" lengthAdjust="spacing" textLength="62" x="3544.25" y="291.8467">Neboska</text><line style="stroke:#181818;stroke-width:0.5;" x1="3472.5" x2="3645.5" y1="303" y2="303"/><polygon fill="none" points="3482.5,311.6484,3486.5,315.6484,3482.5,319.6484,3478.5,315.6484" style="stroke:#B38D22;stroke-width:1.0;"/><text fill="#000000" font-family="sans-serif" font-size="14" lengthAdjust="spacing" textLength="130" x="3491.5" y="319.9951">name = &#1053;&#1077;&#1073;&#1086;&#1089;&#1100;&#1082;&#1072;</text><line style="stroke:#181818;stroke-width:0.5;" x1="3472.5" x2="3645.5" y1="327.2969" y2="327.2969"/><ellipse cx="3482.5" cy="340.9453" fill="#84BE84" rx="3" ry="3" style="stroke:#038048;stroke-width:1.0;"/><text fill="#000000" font-family="sans-serif" font-size="14" lengthAdjust="spacing" textLength="139" x="3491.5" y="344.292">Place getLocation()</text><ellipse cx="3482.5" cy="357.2422" fill="#84BE84" rx="3" ry="3" style="stroke:#038048;stroke-width:1.0;"/><text fill="#000000" font-family="sans-serif" font-size="14" lengthAdjust="spacing" textLength="149" x="3491.5" y="360.5889">Disease getDisease()</text></g><!--class Rasteryayka--><g id="elem_Rasteryayka"><rect codeLine="142" fill="#F1F1F1" height="96.8906" id="Rasteryayka" rx="2.5" ry="2.5" style="stroke:#181818;stroke-width:0.5;" width="175" x="3681.5" y="271"/><ellipse cx="3721.25" cy="287" fill="#ADD1B2" rx="11" ry="11" style="stroke:#181818;stroke-width:1.0;"/><path d="M3723.5938,282.6719 C3722.6563,282.2344 3722.0625,282.0938 3721.1875,282.0938 C3718.5625,282.0938 3716.5625,284.1719 3716.5625,286.8906 L3716.5625,288.0156 C3716.5625,290.5938 3718.6719,292.4844 3721.5625,292.4844 C3722.7813,292.4844 3723.9375,292.1875 3724.6875,291.6406 C3725.2656,291.2344 3725.5938,290.7813 3725.5938,290.3906 C3725.5938,289.9375 3725.2031,289.5469 3724.7344,289.5469 C3724.5156,289.5469 3724.3125,289.625 3724.125,289.8125 C3723.6719,290.2969 3723.6719,290.2969 3723.4844,290.3906 C3723.0625,290.6563 3722.375,290.7813 3721.6094,290.7813 C3719.5625,290.7813 3718.2656,289.6875 3718.2656,287.9844 L3718.2656,286.8906 C3718.2656,285.1094 3719.5156,283.7969 3721.25,283.7969 C3721.8281,283.7969 3722.4375,283.9531 3722.9063,284.2031 C3723.3906,284.4844 3723.5625,284.7031 3723.6563,285.1094 C3723.7188,285.5156 3723.75,285.6406 3723.8906,285.7656 C3724.0313,285.9063 3724.2656,286.0156 3724.4844,286.0156 C3724.75,286.0156 3725.0156,285.875 3725.1875,285.6563 C3725.2969,285.5 3725.3281,285.3125 3725.3281,284.8906 L3725.3281,283.4688 C3725.3281,283.0313 3725.3125,282.9063 3725.2188,282.75 C3725.0625,282.4844 3724.7813,282.3438 3724.4844,282.3438 C3724.1875,282.3438 3723.9844,282.4375 3723.7656,282.75 L3723.5938,282.6719 Z " fill="#000000"/><text fill="#000000" font-family="sans-serif" font-size="14" lengthAdjust="spacing" textLength="88" x="3740.75" y="291.8467">Rasteryayka</text><line style="stroke:#181818;stroke-width:0.5;" x1="3682.5" x2="3855.5" y1="303" y2="303"/><polygon fill="none" points="3692.5,311.6484,3696.5,315.6484,3692.5,319.6484,3688.5,315.6484" style="stroke:#B38D22;stroke-width:1.0;"/><text fill="#000000" font-family="sans-serif" font-size="14" lengthAdjust="spacing" textLength="147" x="3701.5" y="319.9951">name = &#1056;&#1072;&#1089;&#1090;&#1077;&#1088;&#1103;&#1081;&#1082;&#1072;</text><line style="stroke:#181818;stroke-width:0.5;" x1="3682.5" x2="3855.5" y1="327.2969" y2="327.2969"/><ellipse cx="3692.5" cy="340.9453" fill="#84BE84" rx="3" ry="3" style="stroke:#038048;stroke-width:1.0;"/><text fill="#000000" font-family="sans-serif" font-size="14" lengthAdjust="spacing" textLength="139" x="3701.5" y="344.292">Place getLocation()</text><ellipse cx="3692.5" cy="357.2422" fill="#84BE84" rx="3" ry="3" style="stroke:#038048;stroke-width:1.0;"/><text fill="#000000" font-family="sans-serif" font-size="14" lengthAdjust="spacing" textLength="149" x="3701.5" y="360.5889">Disease getDisease()</text></g><!--class Molchyn--><g id="elem_Molchyn"><rect codeLine="148" fill="#F1F1F1" height="96.8906" id="Molchyn" rx="2.5" ry="2.5" style="stroke:#181818;stroke-width:0.5;" width="175" x="3891.5" y="271"/><ellipse cx="3945.25" cy="287" fill="#ADD1B2" rx="11" ry="11" style="stroke:#181818;stroke-width:1.0;"/><path d="M3947.5938,282.6719 C3946.6563,282.2344 3946.0625,282.0938 3945.1875,282.0938 C3942.5625,282.0938 3940.5625,284.1719 3940.5625,286.8906 L3940.5625,288.0156 C3940.5625,290.5938 3942.6719,292.4844 3945.5625,292.4844 C3946.7813,292.4844 3947.9375,292.1875 3948.6875,291.6406 C3949.2656,291.2344 3949.5938,290.7813 3949.5938,290.3906 C3949.5938,289.9375 3949.2031,289.5469 3948.7344,289.5469 C3948.5156,289.5469 3948.3125,289.625 3948.125,289.8125 C3947.6719,290.2969 3947.6719,290.2969 3947.4844,290.3906 C3947.0625,290.6563 3946.375,290.7813 3945.6094,290.7813 C3943.5625,290.7813 3942.2656,289.6875 3942.2656,287.9844 L3942.2656,286.8906 C3942.2656,285.1094 3943.5156,283.7969 3945.25,283.7969 C3945.8281,283.7969 3946.4375,283.9531 3946.9063,284.2031 C3947.3906,284.4844 3947.5625,284.7031 3947.6563,285.1094 C3947.7188,285.5156 3947.75,285.6406 3947.8906,285.7656 C3948.0313,285.9063 3948.2656,286.0156 3948.4844,286.0156 C3948.75,286.0156 3949.0156,285.875 3949.1875,285.6563 C3949.2969,285.5 3949.3281,285.3125 3949.3281,284.8906 L3949.3281,283.4688 C3949.3281,283.0313 3949.3125,282.9063 3949.2188,282.75 C3949.0625,282.4844 3948.7813,282.3438 3948.4844,282.3438 C3948.1875,282.3438 3947.9844,282.4375 3947.7656,282.75 L3947.5938,282.6719 Z " fill="#000000"/><text fill="#000000" font-family="sans-serif" font-size="14" lengthAdjust="spacing" textLength="59" x="3965.75" y="291.8467">Molchyn</text><line style="stroke:#181818;stroke-width:0.5;" x1="3892.5" x2="4065.5" y1="303" y2="303"/><polygon fill="none" points="3902.5,311.6484,3906.5,315.6484,3902.5,319.6484,3898.5,315.6484" style="stroke:#B38D22;stroke-width:1.0;"/><text fill="#000000" font-family="sans-serif" font-size="14" lengthAdjust="spacing" textLength="114" x="3911.5" y="319.9951">name = &#1052;&#1086;&#1083;&#1095;&#1091;&#1085;</text><line style="stroke:#181818;stroke-width:0.5;" x1="3892.5" x2="4065.5" y1="327.2969" y2="327.2969"/><ellipse cx="3902.5" cy="340.9453" fill="#84BE84" rx="3" ry="3" style="stroke:#038048;stroke-width:1.0;"/><text fill="#000000" font-family="sans-serif" font-size="14" lengthAdjust="spacing" textLength="139" x="3911.5" y="344.292">Place getLocation()</text><ellipse cx="3902.5" cy="357.2422" fill="#84BE84" rx="3" ry="3" style="stroke:#038048;stroke-width:1.0;"/><text fill="#000000" font-family="sans-serif" font-size="14" lengthAdjust="spacing" textLength="149" x="3911.5" y="360.5889">Disease getDisease()</text></g><!--class Ponchik--><g id="elem_Ponchik"><rect codeLine="154" fill="#F1F1F1" height="96.8906" id="Ponchik" rx="2.5" ry="2.5" style="stroke:#181818;stroke-width:0.5;" width="175" x="3051.5" y="271"/><ellipse cx="3106.25" cy="287" fill="#ADD1B2" rx="11" ry="11" style="stroke:#181818;stroke-width:1.0;"/><path d="M3108.5938,282.6719 C3107.6563,282.2344 3107.0625,282.0938 3106.1875,282.0938 C3103.5625,282.0938 3101.5625,284.1719 3101.5625,286.8906 L3101.5625,288.0156 C3101.5625,290.5938 3103.6719,292.4844 3106.5625,292.4844 C3107.7813,292.4844 3108.9375,292.1875 3109.6875,291.6406 C3110.2656,291.2344 3110.5938,290.7813 3110.5938,290.3906 C3110.5938,289.9375 3110.2031,289.5469 3109.7344,289.5469 C3109.5156,289.5469 3109.3125,289.625 3109.125,289.8125 C3108.6719,290.2969 3108.6719,290.2969 3108.4844,290.3906 C3108.0625,290.6563 3107.375,290.7813 3106.6094,290.7813 C3104.5625,290.7813 3103.2656,289.6875 3103.2656,287.9844 L3103.2656,286.8906 C3103.2656,285.1094 3104.5156,283.7969 3106.25,283.7969 C3106.8281,283.7969 3107.4375,283.9531 3107.9063,284.2031 C3108.3906,284.4844 3108.5625,284.7031 3108.6563,285.1094 C3108.7188,285.5156 3108.75,285.6406 3108.8906,285.7656 C3109.0313,285.9063 3109.2656,286.0156 3109.4844,286.0156 C3109.75,286.0156 3110.0156,285.875 3110.1875,285.6563 C3110.2969,285.5 3110.3281,285.3125 3110.3281,284.8906 L3110.3281,283.4688 C3110.3281,283.0313 3110.3125,282.9063 3110.2188,282.75 C3110.0625,282.4844 3109.7813,282.3438 3109.4844,282.3438 C3109.1875,282.3438 3108.9844,282.4375 3108.7656,282.75 L3108.5938,282.6719 Z " fill="#000000"/><text fill="#000000" font-family="sans-serif" font-size="14" lengthAdjust="spacing" textLength="57" x="3126.75" y="291.8467">Ponchik</text><line style="stroke:#181818;stroke-width:0.5;" x1="3052.5" x2="3225.5" y1="303" y2="303"/><polygon fill="none" points="3062.5,311.6484,3066.5,315.6484,3062.5,319.6484,3058.5,315.6484" style="stroke:#B38D22;stroke-width:1.0;"/><text fill="#000000" font-family="sans-serif" font-size="14" lengthAdjust="spacing" textLength="113" x="3071.5" y="319.9951">name = &#1055;&#1086;&#1085;&#1095;&#1080;&#1082;</text><line style="stroke:#181818;stroke-width:0.5;" x1="3052.5" x2="3225.5" y1="327.2969" y2="327.2969"/><ellipse cx="3062.5" cy="340.9453" fill="#84BE84" rx="3" ry="3" style="stroke:#038048;stroke-width:1.0;"/><text fill="#000000" font-family="sans-serif" font-size="14" lengthAdjust="spacing" textLength="139" x="3071.5" y="344.292">Place getLocation()</text><ellipse cx="3062.5" cy="357.2422" fill="#84BE84" rx="3" ry="3" style="stroke:#038048;stroke-width:1.0;"/><text fill="#000000" font-family="sans-serif" font-size="14" lengthAdjust="spacing" textLength="149" x="3071.5" y="360.5889">Disease getDisease()</text></g><!--class Siropchik--><g id="elem_Siropchik"><rect codeLine="160" fill="#F1F1F1" height="96.8906" id="Siropchik" rx="2.5" ry="2.5" style="stroke:#181818;stroke-width:0.5;" width="175" x="3261.5" y="271"/><ellipse cx="3310.75" cy="287" fill="#ADD1B2" rx="11" ry="11" style="stroke:#181818;stroke-width:1.0;"/><path d="M3313.0938,282.6719 C3312.1563,282.2344 3311.5625,282.0938 3310.6875,282.0938 C3308.0625,282.0938 3306.0625,284.1719 3306.0625,286.8906 L3306.0625,288.0156 C3306.0625,290.5938 3308.1719,292.4844 3311.0625,292.4844 C3312.2813,292.4844 3313.4375,292.1875 3314.1875,291.6406 C3314.7656,291.2344 3315.0938,290.7813 3315.0938,290.3906 C3315.0938,289.9375 3314.7031,289.5469 3314.2344,289.5469 C3314.0156,289.5469 3313.8125,289.625 3313.625,289.8125 C3313.1719,290.2969 3313.1719,290.2969 3312.9844,290.3906 C3312.5625,290.6563 3311.875,290.7813 3311.1094,290.7813 C3309.0625,290.7813 3307.7656,289.6875 3307.7656,287.9844 L3307.7656,286.8906 C3307.7656,285.1094 3309.0156,283.7969 3310.75,283.7969 C3311.3281,283.7969 3311.9375,283.9531 3312.4063,284.2031 C3312.8906,284.4844 3313.0625,284.7031 3313.1563,285.1094 C3313.2188,285.5156 3313.25,285.6406 3313.3906,285.7656 C3313.5313,285.9063 3313.7656,286.0156 3313.9844,286.0156 C3314.25,286.0156 3314.5156,285.875 3314.6875,285.6563 C3314.7969,285.5 3314.8281,285.3125 3314.8281,284.8906 L3314.8281,283.4688 C3314.8281,283.0313 3314.8125,282.9063 3314.7188,282.75 C3314.5625,282.4844 3314.2813,282.3438 3313.9844,282.3438 C3313.6875,282.3438 3313.4844,282.4375 3313.2656,282.75 L3313.0938,282.6719 Z " fill="#000000"/><text fill="#000000" font-family="sans-serif" font-size="14" lengthAdjust="spacing" textLength="68" x="3331.25" y="291.8467">Siropchik</text><line style="stroke:#181818;stroke-width:0.5;" x1="3262.5" x2="3435.5" y1="303" y2="303"/><polygon fill="none" points="3272.5,311.6484,3276.5,315.6484,3272.5,319.6484,3268.5,315.6484" style="stroke:#B38D22;stroke-width:1.0;"/><text fill="#000000" font-family="sans-serif" font-size="14" lengthAdjust="spacing" textLength="132" x="3281.5" y="319.9951">name = &#1057;&#1080;&#1088;&#1086;&#1087;&#1095;&#1080;&#1082;</text><line style="stroke:#181818;stroke-width:0.5;" x1="3262.5" x2="3435.5" y1="327.2969" y2="327.2969"/><ellipse cx="3272.5" cy="340.9453" fill="#84BE84" rx="3" ry="3" style="stroke:#038048;stroke-width:1.0;"/><text fill="#000000" font-family="sans-serif" font-size="14" lengthAdjust="spacing" textLength="139" x="3281.5" y="344.292">Place getLocation()</text><ellipse cx="3272.5" cy="357.2422" fill="#84BE84" rx="3" ry="3" style="stroke:#038048;stroke-width:1.0;"/><text fill="#000000" font-family="sans-serif" font-size="14" lengthAdjust="spacing" textLength="149" x="3281.5" y="360.5889">Disease getDisease()</text></g><!--class Endured--><g id="elem_Endured"><rect codeLine="166" fill="#F1F1F1" height="64.2969" id="Endured" rx="2.5" ry="2.5" style="stroke:#181818;stroke-width:0.5;" width="134" x="2174" y="90"/><ellipse cx="2207.9" cy="106" fill="#B4A7E5" rx="11" ry="11" style="stroke:#181818;stroke-width:1.0;"/><path d="M2208.8531,102.7813 L2210.5719,102.7813 C2210.9625,102.7813 2211.15,102.75 2211.275,102.6719 C2211.5406,102.5156 2211.6813,102.2344 2211.6813,101.9375 C2211.6813,101.6719 2211.5719,101.4063 2211.3375,101.2344 C2211.1656,101.125 2211.025,101.0938 2210.5719,101.0938 L2205.4313,101.0938 C2204.9938,101.0938 2204.8688,101.1094 2204.7125,101.2031 C2204.4625,101.3594 2204.3063,101.6563 2204.3063,101.9375 C2204.3063,102.2188 2204.4469,102.4688 2204.6656,102.6406 C2204.8219,102.75 2205.0094,102.7813 2205.4313,102.7813 L2207.15,102.7813 L2207.15,109.2969 L2205.4313,109.2969 C2204.9938,109.2969 2204.8688,109.3125 2204.7125,109.4219 C2204.4625,109.5781 2204.3063,109.8594 2204.3063,110.1563 C2204.3063,110.4063 2204.4469,110.6719 2204.6656,110.8281 C2204.8219,110.9531 2205.025,111 2205.4313,111 L2210.5719,111 C2211.3219,111 2211.6813,110.7188 2211.6813,110.1563 C2211.6813,109.875 2211.5719,109.625 2211.3375,109.4531 C2211.1656,109.3281 2211.025,109.2969 2210.5719,109.2969 L2208.8531,109.2969 L2208.8531,102.7813 Z " fill="#000000"/><text fill="#000000" font-family="sans-serif" font-size="14" font-style="italic" lengthAdjust="spacing" textLength="60" x="2226.1" y="110.8467">Endured</text><line style="stroke:#181818;stroke-width:0.5;" x1="2175" x2="2307" y1="122" y2="122"/><line style="stroke:#181818;stroke-width:0.5;" x1="2175" x2="2307" y1="130" y2="130"/><ellipse cx="2185" cy="143.6484" fill="#84BE84" rx="3" ry="3" style="stroke:#038048;stroke-width:1.0;"/><text fill="#000000" font-family="sans-serif" font-size="14" lengthAdjust="spacing" textLength="108" x="2194" y="146.9951">String endure()</text></g><!--class Pulka--><g id="elem_Pulka"><rect codeLine="170" fill="#F1F1F1" height="113.1875" id="Pulka" rx="2.5" ry="2.5" style="stroke:#181818;stroke-width:0.5;" width="175" x="2153.5" y="263"/><ellipse cx="2217.75" cy="279" fill="#ADD1B2" rx="11" ry="11" style="stroke:#181818;stroke-width:1.0;"/><path d="M2220.0938,274.6719 C2219.1563,274.2344 2218.5625,274.0938 2217.6875,274.0938 C2215.0625,274.0938 2213.0625,276.1719 2213.0625,278.8906 L2213.0625,280.0156 C2213.0625,282.5938 2215.1719,284.4844 2218.0625,284.4844 C2219.2813,284.4844 2220.4375,284.1875 2221.1875,283.6406 C2221.7656,283.2344 2222.0938,282.7813 2222.0938,282.3906 C2222.0938,281.9375 2221.7031,281.5469 2221.2344,281.5469 C2221.0156,281.5469 2220.8125,281.625 2220.625,281.8125 C2220.1719,282.2969 2220.1719,282.2969 2219.9844,282.3906 C2219.5625,282.6563 2218.875,282.7813 2218.1094,282.7813 C2216.0625,282.7813 2214.7656,281.6875 2214.7656,279.9844 L2214.7656,278.8906 C2214.7656,277.1094 2216.0156,275.7969 2217.75,275.7969 C2218.3281,275.7969 2218.9375,275.9531 2219.4063,276.2031 C2219.8906,276.4844 2220.0625,276.7031 2220.1563,277.1094 C2220.2188,277.5156 2220.25,277.6406 2220.3906,277.7656 C2220.5313,277.9063 2220.7656,278.0156 2220.9844,278.0156 C2221.25,278.0156 2221.5156,277.875 2221.6875,277.6563 C2221.7969,277.5 2221.8281,277.3125 2221.8281,276.8906 L2221.8281,275.4688 C2221.8281,275.0313 2221.8125,274.9063 2221.7188,274.75 C2221.5625,274.4844 2221.2813,274.3438 2220.9844,274.3438 C2220.6875,274.3438 2220.4844,274.4375 2220.2656,274.75 L2220.0938,274.6719 Z " fill="#000000"/><text fill="#000000" font-family="sans-serif" font-size="14" lengthAdjust="spacing" textLength="38" x="2238.25" y="283.8467">Pulka</text><line style="stroke:#181818;stroke-width:0.5;" x1="2154.5" x2="2327.5" y1="295" y2="295"/><polygon fill="none" points="2164.5,303.6484,2168.5,307.6484,2164.5,311.6484,2160.5,307.6484" style="stroke:#B38D22;stroke-width:1.0;"/><text fill="#000000" font-family="sans-serif" font-size="14" lengthAdjust="spacing" textLength="112" x="2173.5" y="311.9951">name = &#1055;&#1091;&#1083;&#1100;&#1082;&#1072;</text><line style="stroke:#181818;stroke-width:0.5;" x1="2154.5" x2="2327.5" y1="319.2969" y2="319.2969"/><ellipse cx="2164.5" cy="332.9453" fill="#84BE84" rx="3" ry="3" style="stroke:#038048;stroke-width:1.0;"/><text fill="#000000" font-family="sans-serif" font-size="14" lengthAdjust="spacing" textLength="139" x="2173.5" y="336.292">Place getLocation()</text><ellipse cx="2164.5" cy="349.2422" fill="#84BE84" rx="3" ry="3" style="stroke:#038048;stroke-width:1.0;"/><text fill="#000000" font-family="sans-serif" font-size="14" lengthAdjust="spacing" textLength="149" x="2173.5" y="352.5889">Disease getDisease()</text><ellipse cx="2164.5" cy="365.5391" fill="#84BE84" rx="3" ry="3" style="stroke:#038048;stroke-width:1.0;"/><text fill="#000000" font-family="sans-serif" font-size="14" lengthAdjust="spacing" textLength="108" x="2173.5" y="368.8857">String endure()</text></g><!--class AbleToImpact--><g id="elem_AbleToImpact"><rect codeLine="177" fill="#F1F1F1" height="64.2969" id="AbleToImpact" rx="2.5" ry="2.5" style="stroke:#181818;stroke-width:0.5;" width="244" x="1874" y="90"/><ellipse cx="1942.25" cy="106" fill="#B4A7E5" rx="11" ry="11" style="stroke:#181818;stroke-width:1.0;"/><path d="M1943.2031,102.7813 L1944.9219,102.7813 C1945.3125,102.7813 1945.5,102.75 1945.625,102.6719 C1945.8906,102.5156 1946.0313,102.2344 1946.0313,101.9375 C1946.0313,101.6719 1945.9219,101.4063 1945.6875,101.2344 C1945.5156,101.125 1945.375,101.0938 1944.9219,101.0938 L1939.7813,101.0938 C1939.3438,101.0938 1939.2188,101.1094 1939.0625,101.2031 C1938.8125,101.3594 1938.6563,101.6563 1938.6563,101.9375 C1938.6563,102.2188 1938.7969,102.4688 1939.0156,102.6406 C1939.1719,102.75 1939.3594,102.7813 1939.7813,102.7813 L1941.5,102.7813 L1941.5,109.2969 L1939.7813,109.2969 C1939.3438,109.2969 1939.2188,109.3125 1939.0625,109.4219 C1938.8125,109.5781 1938.6563,109.8594 1938.6563,110.1563 C1938.6563,110.4063 1938.7969,110.6719 1939.0156,110.8281 C1939.1719,110.9531 1939.375,111 1939.7813,111 L1944.9219,111 C1945.6719,111 1946.0313,110.7188 1946.0313,110.1563 C1946.0313,109.875 1945.9219,109.625 1945.6875,109.4531 C1945.5156,109.3281 1945.375,109.2969 1944.9219,109.2969 L1943.2031,109.2969 L1943.2031,102.7813 Z " fill="#000000"/><text fill="#000000" font-family="sans-serif" font-size="14" font-style="italic" lengthAdjust="spacing" textLength="99" x="1962.75" y="110.8467">AbleToImpact</text><line style="stroke:#181818;stroke-width:0.5;" x1="1875" x2="2117" y1="122" y2="122"/><line style="stroke:#181818;stroke-width:0.5;" x1="1875" x2="2117" y1="130" y2="130"/><ellipse cx="1885" cy="143.6484" fill="#84BE84" rx="3" ry="3" style="stroke:#038048;stroke-width:1.0;"/><text fill="#000000" font-family="sans-serif" font-size="14" lengthAdjust="spacing" textLength="218" x="1894" y="146.9951">String impact(Hospital target)</text></g><!--class Sineglazka--><g id="elem_Sineglazka"><rect codeLine="181" fill="#F1F1F1" height="113.1875" id="Sineglazka" rx="2.5" ry="2.5" style="stroke:#181818;stroke-width:0.5;" width="244" x="1874" y="263"/><ellipse cx="1953.25" cy="279" fill="#ADD1B2" rx="11" ry="11" style="stroke:#181818;stroke-width:1.0;"/><path d="M1955.5938,274.6719 C1954.6563,274.2344 1954.0625,274.0938 1953.1875,274.0938 C1950.5625,274.0938 1948.5625,276.1719 1948.5625,278.8906 L1948.5625,280.0156 C1948.5625,282.5938 1950.6719,284.4844 1953.5625,284.4844 C1954.7813,284.4844 1955.9375,284.1875 1956.6875,283.6406 C1957.2656,283.2344 1957.5938,282.7813 1957.5938,282.3906 C1957.5938,281.9375 1957.2031,281.5469 1956.7344,281.5469 C1956.5156,281.5469 1956.3125,281.625 1956.125,281.8125 C1955.6719,282.2969 1955.6719,282.2969 1955.4844,282.3906 C1955.0625,282.6563 1954.375,282.7813 1953.6094,282.7813 C1951.5625,282.7813 1950.2656,281.6875 1950.2656,279.9844 L1950.2656,278.8906 C1950.2656,277.1094 1951.5156,275.7969 1953.25,275.7969 C1953.8281,275.7969 1954.4375,275.9531 1954.9063,276.2031 C1955.3906,276.4844 1955.5625,276.7031 1955.6563,277.1094 C1955.7188,277.5156 1955.75,277.6406 1955.8906,277.7656 C1956.0313,277.9063 1956.2656,278.0156 1956.4844,278.0156 C1956.75,278.0156 1957.0156,277.875 1957.1875,277.6563 C1957.2969,277.5 1957.3281,277.3125 1957.3281,276.8906 L1957.3281,275.4688 C1957.3281,275.0313 1957.3125,274.9063 1957.2188,274.75 C1957.0625,274.4844 1956.7813,274.3438 1956.4844,274.3438 C1956.1875,274.3438 1955.9844,274.4375 1955.7656,274.75 L1955.5938,274.6719 Z " fill="#000000"/><text fill="#000000" font-family="sans-serif" font-size="14" lengthAdjust="spacing" textLength="77" x="1973.75" y="283.8467">Sineglazka</text><line style="stroke:#181818;stroke-width:0.5;" x1="1875" x2="2117" y1="295" y2="295"/><polygon fill="none" points="1885,303.6484,1889,307.6484,1885,311.6484,1881,307.6484" style="stroke:#B38D22;stroke-width:1.0;"/><text fill="#000000" font-family="sans-serif" font-size="14" lengthAdjust="spacing" textLength="146" x="1894" y="311.9951">name = &#1057;&#1080;&#1085;&#1077;&#1075;&#1083;&#1072;&#1079;&#1082;&#1072;</text><line style="stroke:#181818;stroke-width:0.5;" x1="1875" x2="2117" y1="319.2969" y2="319.2969"/><ellipse cx="1885" cy="332.9453" fill="#84BE84" rx="3" ry="3" style="stroke:#038048;stroke-width:1.0;"/><text fill="#000000" font-family="sans-serif" font-size="14" lengthAdjust="spacing" textLength="139" x="1894" y="336.292">Place getLocation()</text><ellipse cx="1885" cy="349.2422" fill="#84BE84" rx="3" ry="3" style="stroke:#038048;stroke-width:1.0;"/><text fill="#000000" font-family="sans-serif" font-size="14" lengthAdjust="spacing" textLength="149" x="1894" y="352.5889">Disease getDisease()</text><ellipse cx="1885" cy="365.5391" fill="#84BE84" rx="3" ry="3" style="stroke:#038048;stroke-width:1.0;"/><text fill="#000000" font-family="sans-serif" font-size="14" lengthAdjust="spacing" textLength="218" x="1894" y="368.8857">String impact(Hospital target)</text></g><!--link Disease to DiseaseType--><g id="link_Disease_DiseaseType"><path codeLine="6" d="M439.553,203.081 C454.504,232.607 470.583,264.358 482.084,287.069 " fill="none" id="Disease-DiseaseType" style="stroke:#181818;stroke-width:1.0;"/></g><!--reverse link Disease to LegIll--><g id="link_Disease_LegIll"><path d="M524.1774,213.6376 C552.7214,234.3056 568.192,245.508 594.412,264.492 " fill="none" id="Disease-backto-LegIll" style="stroke:#181818;stroke-width:1.0;"/><polygon fill="none" points="509.598,203.081,520.6585,218.4974,527.6963,208.7778,509.598,203.081" style="stroke:#181818;stroke-width:1.0;"/></g><!--reverse link Disease to Healthy--><g id="link_Disease_Healthy"><path d="M258.9111,212.7948 C222.2251,236.3108 198.491,251.523 166.279,272.17 " fill="none" id="Disease-backto-Healthy" style="stroke:#181818;stroke-width:1.0;"/><polygon fill="none" points="274.065,203.081,255.6731,207.7435,262.149,217.8461,274.065,203.081" style="stroke:#181818;stroke-width:1.0;"/></g><!--reverse link Disease to Undefined--><g id="link_Disease_Undefined"><path d="M350.7911,219.1727 C340.7481,239.2087 338.257,244.176 328.951,262.741 " fill="none" id="Disease-backto-Undefined" style="stroke:#181818;stroke-width:1.0;"/><polygon fill="none" points="358.857,203.081,345.4272,216.484,356.155,221.8613,358.857,203.081" style="stroke:#181818;stroke-width:1.0;"/></g><!--link Readable to ReadableType--><g id="link_Readable_ReadableType"><path codeLine="44" d="M958.291,203.081 C937.752,232.607 915.664,264.358 899.865,287.069 " fill="none" id="Readable-ReadableType" style="stroke:#181818;stroke-width:1.0;"/></g><!--reverse link Readable to List--><g id="link_Readable_List"><path d="M1055.9962,219.5887 C1064.7062,239.6247 1066.69,244.176 1074.76,262.741 " fill="none" id="Readable-backto-List" style="stroke:#181818;stroke-width:1.0;"/><polygon fill="none" points="1048.82,203.081,1050.4936,221.9807,1061.4987,217.1966,1048.82,203.081" style="stroke:#181818;stroke-width:1.0;"/></g><!--link Place to PlaceType--><g id="link_Place_PlaceType"><path codeLine="69" d="M1580,186.743 C1580,217.052 1580,252.343 1580,278.768 " fill="none" id="Place-PlaceType" style="stroke:#181818;stroke-width:1.0;"/></g><!--reverse link Place to Freedom--><g id="link_Place_Freedom"><path d="M1644.6753,200.5693 C1667.5253,227.9813 1682.25,245.641 1703.36,270.959 " fill="none" id="Place-backto-Freedom" style="stroke:#181818;stroke-width:1.0;"/><polygon fill="none" points="1633.15,186.743,1640.0665,204.4111,1649.2841,196.7276,1633.15,186.743" style="stroke:#181818;stroke-width:1.0;"/></g><!--reverse link Place to Hospital--><g id="link_Place_Hospital"><path d="M1504.7863,199.5841 C1480.7063,224.0981 1466.05,239.031 1442.76,262.737 " fill="none" id="Place-backto-Hospital" style="stroke:#181818;stroke-width:1.0;"/><polygon fill="none" points="1517.4,186.743,1500.5059,195.3795,1509.0666,203.7887,1517.4,186.743" style="stroke:#181818;stroke-width:1.0;"/></g><!--reverse link Human to Meduniza--><g id="link_Human_Meduniza"><path d="M2960.8942,218.4586 C2948.7042,238.4946 2945.24,244.176 2933.94,262.741 " fill="none" id="Human-backto-Meduniza" style="stroke:#181818;stroke-width:1.0;"/><polygon fill="none" points="2970.25,203.081,2955.7684,215.34,2966.0201,221.5772,2970.25,203.081" style="stroke:#181818;stroke-width:1.0;"/></g><!--reverse link Adult to Meduniza--><g id="link_Adult_Meduniza"><path d="M2723.3024,173.9589 C2758.4924,202.7449 2792.69,230.719 2831.78,262.698 " fill="none" id="Adult-backto-Meduniza" style="stroke:#181818;stroke-width:1.0;stroke-dasharray:7.0,7.0;"/><polygon fill="none" points="2709.37,162.562,2719.5034,178.603,2727.1013,169.3148,2709.37,162.562" style="stroke:#181818;stroke-width:1.0;"/></g><!--reverse link Human to Vorchyn--><g id="link_Human_Vorchyn"><path d="M2914.4606,162.7527 C2873.3706,177.8967 2840.44,189.216 2795,203 C2690.2,234.788 2658.26,223.795 2556,263 C2550.22,265.214 2544.36,267.672 2538.51,270.285 " fill="none" id="Human-backto-Vorchyn" style="stroke:#181818;stroke-width:1.0;"/><polygon fill="none" points="2931.35,156.528,2912.3857,157.1229,2916.5355,168.3825,2931.35,156.528" style="stroke:#181818;stroke-width:1.0;"/></g><!--reverse link Adult to Vorchyn--><g id="link_Adult_Vorchyn"><path d="M2605.3256,174.8272 C2574.4056,203.6132 2545.29,230.719 2510.94,262.698 " fill="none" id="Adult-backto-Vorchyn" style="stroke:#181818;stroke-width:1.0;stroke-dasharray:7.0,7.0;"/><polygon fill="none" points="2618.5,162.562,2601.2372,170.4357,2609.414,179.2186,2618.5,162.562" style="stroke:#181818;stroke-width:1.0;"/></g><!--reverse link Angry to Vorchyn--><g id="link_Angry_Vorchyn"><path d="M2451,172.41 C2451,201.553 2451,227.591 2451,262.711 " fill="none" id="Angry-backto-Vorchyn" style="stroke:#181818;stroke-width:1.0;stroke-dasharray:7.0,7.0;"/><polygon fill="none" points="2451,154.41,2445,172.41,2457,172.41,2451,154.41" style="stroke:#181818;stroke-width:1.0;"/></g><!--reverse link Human to Pilulkin--><g id="link_Human_Pilulkin"><path d="M2915.622,179.4519 C2860.042,209.8029 2804.19,240.307 2748.6,270.661 " fill="none" id="Human-backto-Pilulkin" style="stroke:#181818;stroke-width:1.0;"/><polygon fill="none" points="2931.42,170.825,2912.7464,174.1859,2918.4977,184.7179,2931.42,170.825" style="stroke:#181818;stroke-width:1.0;"/></g><!--reverse link Adult to Pilulkin--><g id="link_Adult_Pilulkin"><path d="M2661,180.562 C2661,209.348 2661,230.719 2661,262.698 " fill="none" id="Adult-backto-Pilulkin" style="stroke:#181818;stroke-width:1.0;stroke-dasharray:7.0,7.0;"/><polygon fill="none" points="2661,162.562,2655,180.562,2667,180.562,2661,162.562" style="stroke:#181818;stroke-width:1.0;"/></g><!--reverse link Angry to Pilulkin--><g id="link_Angry_Pilulkin"><path d="M2491.4287,167.2738 C2505.4587,182.3818 2510.63,187.407 2527,203 C2548.12,223.127 2572.02,244.221 2593.73,262.793 " fill="none" id="Angry-backto-Pilulkin" style="stroke:#181818;stroke-width:1.0;stroke-dasharray:7.0,7.0;"/><polygon fill="none" points="2479.18,154.084,2487.0321,171.3567,2495.8253,163.1909,2479.18,154.084" style="stroke:#181818;stroke-width:1.0;"/></g><!--reverse link Human to Neboska--><g id="link_Human_Neboska"><path d="M3124.2087,151.2193 C3213.2487,176.0453 3336.84,213.631 3454,263 C3459.89,265.482 3465.89,268.177 3471.9,270.996 " fill="none" id="Human-backto-Neboska" style="stroke:#181818;stroke-width:1.0;"/><polygon fill="none" points="3106.87,146.385,3122.5972,156.9989,3125.8201,145.4398,3106.87,146.385" style="stroke:#181818;stroke-width:1.0;"/></g><!--reverse link Human to Rasteryayka--><g id="link_Human_Rasteryayka"><path d="M3124.4802,136.8276 C3250.5702,154.7826 3471.32,192.67 3664,263 C3670.49,265.368 3677.08,268.067 3683.63,270.97 " fill="none" id="Human-backto-Rasteryayka" style="stroke:#181818;stroke-width:1.0;"/><polygon fill="none" points="3106.66,134.29,3123.6344,142.7676,3125.3261,130.8875,3106.66,134.29" style="stroke:#181818;stroke-width:1.0;"/></g><!--reverse link Human to Molchyn--><g id="link_Human_Molchyn"><path d="M3124.7461,129.261 C3282.1961,140.274 3603.46,172.063 3874,263 C3880.84,265.299 3887.77,268.007 3894.65,270.969 " fill="none" id="Human-backto-Molchyn" style="stroke:#181818;stroke-width:1.0;"/><polygon fill="none" points="3106.79,128.005,3124.3275,135.2463,3125.1648,123.2756,3106.79,128.005" style="stroke:#181818;stroke-width:1.0;"/></g><!--reverse link Human to Ponchik--><g id="link_Human_Ponchik"><path d="M3077.5709,218.4187 C3091.6909,241.4067 3097.2,250.406 3109.71,270.775 " fill="none" id="Human-backto-Ponchik" style="stroke:#181818;stroke-width:1.0;"/><polygon fill="none" points="3068.15,203.081,3072.4584,221.559,3082.6835,215.2784,3068.15,203.081" style="stroke:#181818;stroke-width:1.0;"/></g><!--reverse link Human to Siropchik--><g id="link_Human_Siropchik"><path d="M3122.0561,184.052 C3172.3661,213.859 3219.62,241.852 3268.67,270.908 " fill="none" id="Human-backto-Siropchik" style="stroke:#181818;stroke-width:1.0;"/><polygon fill="none" points="3106.57,174.877,3118.9978,189.214,3125.1144,178.89,3106.57,174.877" style="stroke:#181818;stroke-width:1.0;"/></g><!--reverse link Human to Pulka--><g id="link_Human_Pulka"><path d="M2914.6427,165.5069 C2873.7927,181.0939 2840.95,191.856 2795,203 C2599.34,250.452 2537.76,201.67 2346,263 C2340.21,264.853 2334.35,267.016 2328.53,269.393 " fill="none" id="Human-backto-Pulka" style="stroke:#181818;stroke-width:1.0;"/><polygon fill="none" points="2931.46,159.09,2912.5037,159.9012,2916.7816,171.1127,2931.46,159.09" style="stroke:#181818;stroke-width:1.0;"/></g><!--reverse link Endured to Pulka--><g id="link_Endured_Pulka"><path d="M2241,172.41 C2241,201.553 2241,227.591 2241,262.711 " fill="none" id="Endured-backto-Pulka" style="stroke:#181818;stroke-width:1.0;stroke-dasharray:7.0,7.0;"/><polygon fill="none" points="2241,154.41,2235,172.41,2247,172.41,2241,154.41" style="stroke:#181818;stroke-width:1.0;"/></g><!--reverse link Human to Sineglazka--><g id="link_Human_Sineglazka"><path d="M2914.6086,166.5656 C2873.8486,182.3066 2841.07,192.846 2795,203 C2507.79,266.294 2422.08,194.775 2136,263 C2130.15,264.395 2124.22,265.987 2118.28,267.73 " fill="none" id="Human-backto-Sineglazka" style="stroke:#181818;stroke-width:1.0;"/><polygon fill="none" points="2931.4,160.081,2912.4471,160.9685,2916.7702,172.1627,2931.4,160.081" style="stroke:#181818;stroke-width:1.0;"/></g><!--reverse link AbleToImpact to Sineglazka--><g id="link_AbleToImpact_Sineglazka"><path d="M1996,172.41 C1996,201.553 1996,227.591 1996,262.711 " fill="none" id="AbleToImpact-backto-Sineglazka" style="stroke:#181818;stroke-width:1.0;stroke-dasharray:7.0,7.0;"/><polygon fill="none" points="1996,154.41,1990,172.41,2002,172.41,1996,154.41" style="stroke:#181818;stroke-width:1.0;"/></g><!--SRC=[hLRTRjem5BxFKrZjJQPIQI-mYqhGWKHfLUYaNRg96o8I1oL66aMLkarQRwPDsirkLdLz0zOLhIigUmNpHZjsVkm4I3MwYm0-FZxVv-_yX3wsUjWXQAFgHWH79DeO6OGEV9IiEyC-6HdDsij6iscS6KPYHjlRkeU1ZoCMOeiXoyDHb6wDZ4tKPg5B7KInJs2bdK5C7Dn4BcN89av8YB6Lxfj5luhcLj5ZFbE7fBD3cBOqnNRY3JijE21D8fZmbF700XUBYJU9q_0yHDumGktSFGGBz08bIkHeRqeciCal-Op_v6D0Y0EPoai3gHFiiUwm1ALUssbswg_141y6qtCDvYk_vRFvEO3T05GIJh_64RN9YKk9NO9nrAhMTXkjMdKLoYMV883u0q0J09pmAJmFV0QGMNm92h3zj8mQZFXP3HqIREDZBosYHhiZV5Ehg27TerX4wPxWhFkbXPElh6J5uC90CFKt5mxcggUY7rjHAyhK0QUYAIuoLJzkn3BDzGkavICqAASkGfYhEURbFl2mfNfMhcAnTmzhjUh-db7VRnyqEZkoT-MsK3tpCugQont1DtDPeZO2bdBVp7ijD6Qvch5qIhjTA44xy3FvCYw9TkcLL8LUynieq1_mtCgcIoBe2Qa7KTzbs5iPDHCedvMjxAIPZ1YhYqE7cFM1ZodgYiya6IeRSazaew2gj2yEmpWVNc1XvWPKJKTanzzABXR4FoIN-1Wes4nEIcjKMAUnr42CPO69HC8J4M67Ek5m1AwCO16yZjrmmSSUU6oaY8HGqbbF8IOKqVicmhanj4Vi0NLFSIP-B9xhzptY4ygYDBvAwJSnQ-RlOSxSpJ_8f2w_xjBhFK8pu_Kg2Atka3v2gv8gfDXz4MDtVY7uhScieD21wmsydhi6bIj-nwVpJ_1yvFVm-pyHQf7Z8EeLCZRAlnL4nytVIjn_J506SuWZAB4X7fP1VUTZW7d79w3vP_xx2N1xWRUOy7pPpK39DHAhCXbGg-lsLaDS0SJ3_09ITRycHDiDWtuvo3MqpRbyQQy7f3g_Hkr1I6ojzucqvEuCjLlIt5a8JGHGUBfEvInbeSqfyOeF6ZwCOdrSkT9WPY-1XKdGXZynZeTFowwHZvtJ6iRK1FxmJVcO_th2dLRJFFiB]--></g></svg>